<?xml version="1.0" encoding="UTF-8"?>
<svg version="1.1" xmlns="http://www.w3.org/2000/svg" width="2000" height="666">
<path d="M0 0 C0.74185547 -0.01160156 1.48371094 -0.02320313 2.24804688 -0.03515625 C6.78528348 -0.01091456 9.74542314 0.46952685 13.4375 3.375 C16.60675226 9.71350452 13.76918881 18.22156858 12.05078125 24.66821289 C11.79718842 25.65463776 11.54359558 26.64106262 11.28231812 27.65737915 C10.44849459 30.8902344 9.59938769 34.1188588 8.75 37.34765625 C8.16612342 39.59899187 7.58321106 41.85057777 7.0012207 44.10240173 C5.47205323 50.00838122 3.92986186 55.9108829 2.3848877 61.81274414 C0.53108474 68.90549313 -1.30643382 76.00247614 -3.146698 83.09874725 C-5.93953688 93.86078441 -8.75294307 104.61725284 -11.5625 115.375 C18.1375 115.375 47.8375 115.375 78.4375 115.375 C79.0975 111.745 79.7575 108.115 80.4375 104.375 C81.19717181 101.07737917 81.9782242 97.79701895 82.80419922 94.51660156 C83.03215179 93.59965012 83.26010437 92.68269867 83.4949646 91.73796082 C84.24006416 88.74617302 84.99063292 85.75579734 85.7421875 82.765625 C86.26784419 80.66819549 86.79348892 78.57076298 87.31912231 76.47332764 C88.41748281 72.09528275 89.51914333 67.71808203 90.62255859 63.34130859 C92.03315017 57.7430806 93.43057487 52.1416535 94.82496452 46.53937149 C95.90400786 42.2138103 96.99246326 37.89065767 98.08349991 33.5681076 C98.60285465 31.50378886 99.11873455 29.43859255 99.63100815 27.37250519 C100.34809004 24.48433952 101.07842124 21.59983029 101.81201172 18.71582031 C102.01890625 17.86994858 102.22580078 17.02407684 102.43896484 16.15257263 C103.87844554 10.57143998 105.5392747 4.24332024 110.625 0.96484375 C114.5832541 0.1347099 118.40099797 -0.03301257 122.4375 -0.0625 C123.62859375 -0.11180664 123.62859375 -0.11180664 124.84375 -0.16210938 C128.90139447 -0.19930445 130.98434574 0.0935126 134.5 2.27734375 C137.88208713 7.68459193 136.87967698 13.99581861 135.54946899 20.06719971 C135.13842695 21.71098102 134.714535 23.35158717 134.27978516 24.98925781 C134.04790497 25.90189896 133.81602478 26.8145401 133.57711792 27.75483704 C132.80490259 30.7822901 132.01575532 33.80505724 131.2265625 36.828125 C130.6688041 39.00100815 130.11214009 41.17417247 129.55648804 43.34759521 C128.05217062 49.21979793 126.53339012 55.08817262 125.01208496 60.95599365 C123.41724253 67.11814578 121.83602381 73.28378964 120.25390625 79.44921875 C117.96062364 88.38176427 115.66341057 97.31328078 113.36123276 106.2435379 C109.28262483 122.06660343 105.23713941 137.89790013 101.2109375 153.734375 C100.63034404 156.01735521 100.04974714 158.30033454 99.46914673 160.58331299 C98.33769929 165.03282898 97.20646383 169.4823988 96.07537842 173.93200684 C94.4903198 180.16735126 92.90518013 186.40267482 91.31884766 192.63769531 C91.06773916 193.62468288 90.81663067 194.61167046 90.55791283 195.62856674 C88.60472679 203.30061267 86.63779562 210.96909272 84.66794777 218.63687515 C83.09411304 224.77561518 81.54874302 230.92098012 80.01751709 237.07048035 C78.94807669 241.35344676 77.86461449 245.6327939 76.77862549 249.91159058 C76.26467647 251.95016371 75.75685486 253.99029267 75.2555542 256.03201294 C74.56263628 258.8511644 73.84829938 261.66406932 73.12890625 264.4765625 C72.83109505 265.72307335 72.83109505 265.72307335 72.52726746 266.99476624 C71.20078638 272.06572489 69.63113318 274.95594963 65.4375 278.375 C61.75212582 279.99180932 57.47756595 279.59599314 53.5 279.625 C52.44522461 279.6559375 52.44522461 279.6559375 51.36914062 279.6875 C46.8616564 279.72129557 44.00954941 279.16756994 40.4375 276.375 C37.61051331 270.72102662 39.66323 263.18339246 41.20654297 257.35302734 C41.39530502 256.60481216 41.58406708 255.85659698 41.77854919 255.08570862 C42.40211023 252.62473765 43.04078802 250.16796682 43.6796875 247.7109375 C44.12748742 245.95658707 44.57433601 244.20199358 45.02029419 242.44717407 C46.20050751 237.81385234 47.39357115 233.18393453 48.5894165 228.55462646 C49.7652011 223.99410669 50.92901123 219.43053827 52.09375 214.8671875 C53.84751204 208.00271096 55.60766515 201.13992922 57.37451172 194.27880859 C61.73983215 177.31369671 66.0865264 160.34379702 70.4375 143.375 C40.7375 143.375 11.0375 143.375 -19.5625 143.375 C-20.0575 147.335 -20.0575 147.335 -20.5625 151.375 C-20.89659681 153.00682529 -21.26281116 154.63272028 -21.6741333 156.24681091 C-21.89546432 157.12514084 -22.11679535 158.00347076 -22.34483337 158.90841675 C-22.58585281 159.84412506 -22.82687225 160.77983337 -23.07519531 161.74389648 C-23.33065628 162.7516362 -23.58611725 163.75937592 -23.84931946 164.7976532 C-24.69163223 168.11503955 -25.54095813 171.43058402 -26.390625 174.74609375 C-26.9828996 177.07039493 -27.57483333 179.39478299 -28.16644287 181.71925354 C-29.40754333 186.59121068 -30.65197853 191.46229978 -31.89892578 196.33276367 C-33.48561485 202.53085956 -35.0652887 208.73071579 -36.64256668 214.93121243 C-37.86531042 219.73553464 -39.09123623 224.53904048 -40.31813812 229.34230232 C-40.90096545 231.62510381 -41.48298187 233.9081125 -42.06412506 236.19134331 C-43.86499372 243.26114599 -45.69257198 250.3231393 -47.5625 257.375 C-47.79184738 258.24624134 -48.02119476 259.11748268 -48.25749207 260.01512527 C-48.89240028 262.40160337 -49.54683885 264.78162938 -50.20996094 267.16040039 C-50.39052158 267.84366866 -50.57108223 268.52693693 -50.75711441 269.2309103 C-51.91657667 273.27271757 -53.27774159 275.72651864 -56.5625 278.375 C-60.545944 279.83609756 -64.79943633 279.63369261 -69 279.6875 C-69.75087891 279.71650391 -70.50175781 279.74550781 -71.27539062 279.77539062 C-75.0231955 279.81824152 -77.1686003 279.58463125 -80.53515625 277.79296875 C-83.22348728 274.58665487 -83.28122538 272.53728999 -83.5625 268.375 C-83.20355054 265.5270571 -82.50983318 262.80582249 -81.77441406 260.03393555 C-81.5705691 259.22353569 -81.36672413 258.41313583 -81.15670204 257.57817841 C-80.47619504 254.88604806 -79.77723666 252.19907237 -79.078125 249.51171875 C-78.58987196 247.59609538 -78.10276588 245.68017935 -77.61672974 243.76399231 C-76.30397863 238.60208526 -74.97521123 233.4444235 -73.64348602 228.28738403 C-72.24714876 222.86848936 -70.8658637 217.44576008 -69.48291016 212.0234375 C-66.70297594 201.13417828 -63.90640603 190.24925165 -61.10437012 179.36566162 C-59.70399066 173.92625227 -58.30667809 168.48606159 -56.91113281 163.04541016 C-56.70741782 162.25126268 -56.50370283 161.45711521 -56.29381466 160.63890266 C-55.894122 159.08068758 -55.49444536 157.52246839 -55.09478569 155.96424484 C-52.81685942 147.08317255 -50.53884603 138.20213122 -48.24810505 129.32435417 C-43.90849661 112.50601864 -39.62152047 95.67555632 -35.40088654 78.826931 C-34.64067251 75.79312213 -33.87944178 72.75957024 -33.11785889 69.72610474 C-32.6138845 67.71844661 -32.1099172 65.7107867 -31.60595703 63.703125 C-31.35755821 62.71365812 -31.10915939 61.72419125 -30.85323334 60.70474052 C-29.38471605 54.85162593 -27.92375738 48.99668774 -26.46830654 43.14031124 C-25.56405287 39.50878003 -24.65310891 35.87895015 -23.74048805 32.24951363 C-23.31791485 30.5627754 -22.89821069 28.87531534 -22.48163414 27.18708611 C-17.06702261 5.25609468 -17.06702261 5.25609468 -11.84765625 1.3359375 C-7.78898255 0.14873925 -4.20585949 -0.06611832 0 0 Z " fill="#FFFFFF" transform="translate(747.5625,197.625)"/>
<path d="M0 0 C0.89771468 -0.00538554 1.79542937 -0.01077108 2.72034752 -0.01631981 C5.72891639 -0.03062904 8.73704711 -0.02348827 11.74563599 -0.01637268 C13.9024796 -0.02207472 16.05932019 -0.02903834 18.21615601 -0.03717041 C24.07569059 -0.05513612 29.9350757 -0.05392688 35.79462957 -0.04822803 C40.68535765 -0.04514082 45.57605682 -0.05122349 50.46678078 -0.05726677 C62.00474388 -0.07132188 73.54263295 -0.06974276 85.08059692 -0.05836487 C96.98500324 -0.04688505 108.88918424 -0.06095493 120.79356086 -0.08776134 C131.01281092 -0.10991188 141.23199023 -0.11655709 151.45126259 -0.11068493 C157.55536106 -0.10731234 163.65931511 -0.10975053 169.7633934 -0.12693596 C175.50410335 -0.14239235 181.24447939 -0.13846374 186.98517609 -0.11963081 C189.09146434 -0.11594122 191.19777726 -0.11906414 193.30404282 -0.1295166 C196.18094544 -0.14270269 199.05673879 -0.13119973 201.93359375 -0.11352539 C202.76580189 -0.1231304 203.59801002 -0.1327354 204.45543659 -0.14263147 C210.12164719 -0.07108004 213.52404996 0.94947721 218.09378052 4.38768005 C222.14684959 9.70541737 221.51573749 15.82619468 221.48146057 22.22348022 C221.48953888 24.0246082 221.48953888 24.0246082 221.49778038 25.8621226 C221.50960184 29.18728882 221.50799336 32.51195316 221.50061357 35.83709943 C221.49588194 39.42614208 221.50839168 43.01513106 221.51863098 46.60415649 C221.53582433 53.63224032 221.53665791 60.66023476 221.53141808 67.68833416 C221.52737621 73.40085995 221.52882013 79.11335933 221.53416634 84.82588387 C221.53491476 85.63900607 221.53566318 86.45212827 221.53643428 87.28989055 C221.53796576 88.94175923 221.53950411 90.59362791 221.54104925 92.24549658 C221.55477618 107.73523718 221.5493352 123.22492728 221.53786404 138.71466673 C221.52793099 152.88423255 221.54087319 167.05366781 221.56479823 181.22321349 C221.58918282 195.77462052 221.59879871 210.32596672 221.5921455 224.87739378 C221.58865191 233.04608778 221.59089456 241.21468135 221.60839653 249.38335991 C221.62311051 256.33702086 221.62376454 263.29051065 221.60632562 270.24416821 C221.59780659 273.79142609 221.59568773 277.33837811 221.61097717 280.88562012 C221.6273515 284.73220248 221.61269229 288.5783117 221.59498596 292.42489624 C221.60939347 294.10408053 221.60939347 294.10408053 221.62409204 295.81718773 C221.56362831 302.18962947 221.12586229 306.32997342 217.09378052 311.38768005 C212.26695894 314.82661936 207.76451028 314.81644268 202.06057739 314.77536011 C201.16130272 314.78074565 200.26202805 314.78613118 199.33550262 314.79167992 C196.32770532 314.80596654 193.32034766 314.798854 190.31253052 314.79173279 C188.15391689 314.79743593 185.99530629 314.80439997 183.83670044 314.81253052 C177.97729216 314.83048186 172.11803348 314.82928994 166.25860596 314.82358813 C161.36773345 314.82049956 156.47688982 314.82658496 151.58602142 314.83262688 C140.0495209 314.84667661 128.51309441 314.84510668 116.97659302 314.83372498 C105.07157796 314.82223932 93.16678806 314.83632607 81.26180267 314.86312145 C71.04169883 314.885264 60.82166574 314.89191919 50.60153961 314.88604504 C44.496929 314.8826713 38.39246278 314.8851185 32.28787231 314.90229607 C26.54879366 314.91774029 20.81004921 314.91383746 15.07098389 314.89499092 C12.96427475 314.89129827 10.85754098 314.8944331 8.75085449 314.90487671 C5.87584357 314.91804161 3.0019464 314.90657885 0.12698364 314.8888855 C-0.70745522 314.8984905 -1.54189407 314.90809551 -2.40161896 314.91799158 C-7.68248264 314.8510817 -10.77873117 313.97738332 -14.90621948 310.38768005 C-17.40039366 306.86539373 -18.28158512 304.46757736 -18.28653622 300.16645908 C-18.29497616 299.12911894 -18.3034161 298.0917788 -18.31211179 297.02300411 C-18.30309673 295.32340846 -18.30309673 295.32340846 -18.29389954 293.58947754 C-18.29928507 292.38070731 -18.30467061 291.17193708 -18.31021935 289.92653745 C-18.32205408 286.5743799 -18.32042603 283.22271925 -18.31305254 279.87058127 C-18.30832588 276.25427347 -18.32082624 272.63801921 -18.33106995 269.02172852 C-18.34827313 261.93836374 -18.34909483 254.85508761 -18.34385704 247.77170736 C-18.33981697 242.01481273 -18.34125696 236.25794432 -18.3466053 230.50105095 C-18.34735372 229.68195381 -18.34810214 228.86285667 -18.34887325 228.0189384 C-18.35040471 226.35498845 -18.35194306 224.69103851 -18.35348821 223.02708858 C-18.36721873 207.42006715 -18.36177168 191.81309583 -18.350303 176.20607554 C-18.34036981 161.92584002 -18.35331178 147.64573405 -18.37723719 133.36551852 C-18.4016156 118.70453687 -18.41123918 104.04361559 -18.40458447 89.38261408 C-18.40108947 81.15078015 -18.40334278 72.91904587 -18.42083549 64.68722725 C-18.43554175 57.67971514 -18.43621365 50.67237285 -18.41876458 43.66486413 C-18.41023912 40.0893842 -18.40814232 36.51420786 -18.42341614 32.93874359 C-18.43976654 29.06329489 -18.42514594 25.18831701 -18.40742493 21.31286621 C-18.41702993 20.18203316 -18.42663494 19.05120011 -18.43653101 17.8860994 C-18.38027248 11.92479912 -18.16922033 7.95155583 -13.90621948 3.38768005 C-9.58598533 -0.25775666 -5.3912002 -0.03872659 0 0 Z M-8.90621948 11.38768005 C-9.20932735 13.59452063 -9.20932735 13.59452063 -9.15790176 16.1884613 C-9.16311726 17.20836151 -9.16833275 18.22826172 -9.17370629 19.27906799 C-9.16924485 20.40803497 -9.16478341 21.53700195 -9.16018677 22.70018005 C-9.16330675 23.89287506 -9.16642673 25.08557007 -9.16964126 26.31440735 C-9.17626077 29.63536634 -9.17384802 32.95610064 -9.16766882 36.2770462 C-9.16315979 39.85445956 -9.17012035 43.4318527 -9.17562866 47.00926208 C-9.18454095 54.02149995 -9.18259251 61.03369511 -9.17680338 68.04593468 C-9.17229409 73.74286119 -9.1716708 79.4397757 -9.17385101 85.13670349 C-9.17415748 85.94626055 -9.17446395 86.7558176 -9.1747797 87.58990669 C-9.17541912 89.23429617 -9.17606755 90.87868564 -9.17672488 92.5230751 C-9.18243355 107.95731893 -9.17586188 123.39153903 -9.16512415 138.82577896 C-9.15618815 152.08079954 -9.15774004 165.3357851 -9.16696167 178.59080505 C-9.17765484 193.96828285 -9.18188418 209.34573983 -9.17573714 224.72322083 C-9.17510002 226.36169942 -9.17447128 228.00017802 -9.17385101 229.63865662 C-9.17354246 230.44490541 -9.17323391 231.25115421 -9.17291601 232.08183479 C-9.1711862 237.77460859 -9.17411031 243.46736923 -9.17881012 249.16014099 C-9.18440838 256.09387175 -9.18292482 263.02755719 -9.17224863 269.96128273 C-9.16697764 273.50173564 -9.1649593 277.04211289 -9.17154694 280.58256531 C-9.17856744 284.41348005 -9.17020808 288.24426981 -9.16018677 292.07518005 C-9.16464821 293.20414703 -9.16910965 294.33311401 -9.17370629 295.49629211 C-9.1684908 296.51619232 -9.1632753 297.53609253 -9.15790176 298.5868988 C-9.15757706 299.47208191 -9.15725235 300.35726501 -9.15691781 301.26927185 C-9.1022177 303.60441889 -9.1022177 303.60441889 -6.90621948 305.38768005 C-4.05271511 305.58774936 -1.2959171 305.66126504 1.55899048 305.64837646 C2.44541906 305.65220201 3.33184764 305.65602756 4.24513769 305.65996903 C7.23315605 305.67033709 10.22098361 305.66629971 13.20901489 305.66233826 C15.34397053 305.6666826 17.47892461 305.67186481 19.61387634 305.67782593 C25.42570779 305.69125627 31.23747437 305.69179018 37.04931831 305.68926263 C41.89314028 305.68819577 46.73694897 305.6930689 51.58076811 305.69786805 C63.0029216 305.70897694 74.4250422 305.70939271 85.84719849 305.70335388 C97.6499245 305.69731004 109.45253142 305.7096324 121.2552371 305.73092395 C131.37243014 305.74850712 141.48958516 305.75454656 151.60679293 305.75128621 C157.65654008 305.74946814 163.70620228 305.75216152 169.75593567 305.76600075 C175.44236652 305.77852136 181.1286109 305.77668997 186.81503868 305.76358986 C188.9073003 305.76121199 190.99957481 305.76400167 193.09182167 305.77221298 C195.93762507 305.78258019 198.78279103 305.77466124 201.62857056 305.76190186 C202.46571641 305.76927614 203.30286227 305.77665043 204.16537619 305.78424817 C206.69125776 305.79598553 206.69125776 305.79598553 210.09378052 305.38768005 C212.26161692 302.13592545 212.34407439 301.2529268 212.3454628 297.49787903 C212.35328604 295.97641738 212.35328604 295.97641738 212.36126733 294.42421913 C212.35457516 292.74783395 212.35457516 292.74783395 212.3477478 291.0375824 C212.35086778 289.85290564 212.35398777 288.66822887 212.35720229 287.44765282 C212.36381446 284.15368609 212.36141425 280.85994639 212.35522985 277.56599331 C212.35071615 274.01584517 212.35768373 270.46571728 212.3631897 266.91557312 C212.37209694 259.95861629 212.37015578 253.00170255 212.36436442 246.04474401 C212.35985315 240.39218637 212.3592327 234.73964083 212.36141205 229.08708191 C212.36187175 227.88170873 212.36187175 227.88170873 212.36234073 226.65198457 C212.36298016 225.01967636 212.36362859 223.38736816 212.36428592 221.75505996 C212.36999311 206.43809702 212.36342522 191.121158 212.35268518 175.80419898 C212.34374932 162.65297757 212.34530125 149.50179146 212.35452271 136.35057068 C212.36521847 121.08953838 212.36944375 105.82852706 212.36329818 90.56749153 C212.36266106 88.94108709 212.36203232 87.31468265 212.36141205 85.6882782 C212.3611035 84.88799332 212.36079495 84.08770844 212.36047705 83.26317251 C212.35874802 77.61544058 212.36166967 71.96772193 212.36637115 66.31999207 C212.37197229 59.44011279 212.37047975 52.56027917 212.35980967 45.68040514 C212.35454258 42.16817492 212.35251376 38.6560209 212.35910797 35.1437912 C212.36613851 31.34174332 212.35776092 27.53982106 212.3477478 23.73777771 C212.35220925 22.62018759 212.35667069 21.50259747 212.36126733 20.35114098 C212.35605183 19.33683321 212.35083634 18.32252544 212.3454628 17.27748108 C212.34513809 16.39929529 212.34481339 15.5211095 212.34447885 14.61631203 C212.23394284 12.10152606 212.23394284 12.10152606 210.09378052 9.38768005 C208.03959157 8.95082189 208.03959157 8.95082189 205.64407349 9.04710388 C204.26286819 9.04744377 204.26286819 9.04744377 202.85375977 9.04779053 C201.35995285 9.07101631 201.35995285 9.07101631 199.83596802 9.0947113 C198.81777985 9.09895615 197.79959167 9.10320099 196.75054932 9.10757446 C193.48969379 9.12440426 190.22945011 9.1620646 186.96878052 9.20018005 C184.76175818 9.21522132 182.55472617 9.22891069 180.34768677 9.24119568 C174.92948128 9.27432192 169.51173472 9.32613391 164.09378052 9.38768005 C164.09378052 13.34768005 164.09378052 17.30768005 164.09378052 21.38768005 C180.42878052 21.88268005 180.42878052 21.88268005 197.09378052 22.38768005 C197.11636493 56.25748523 197.13427824 90.12728761 197.14484585 123.99709862 C197.14609662 127.99146888 197.14739094 131.98583912 197.14871216 135.98020935 C197.14910562 137.17307118 197.14910562 137.17307118 197.14950704 138.39003123 C197.15386393 151.28361177 197.16175158 164.17718788 197.17093331 177.07076579 C197.18026932 190.29078541 197.18583601 203.5108027 197.18786901 216.73082548 C197.18924435 224.89493941 197.19359552 233.05904079 197.20169698 241.22315086 C197.20758444 247.47269913 197.20823962 253.72223774 197.2068882 259.97178841 C197.20716474 262.54339806 197.2091726 265.11500815 197.21298599 267.68661499 C197.21791599 271.18077355 197.21678138 274.6748772 197.21403503 278.16903687 C197.2184043 279.71715597 197.2184043 279.71715597 197.22286183 281.29655021 C197.22087078 282.22512449 197.21887973 283.15369876 197.21682835 284.11041164 C197.21720807 284.91807679 197.21758779 285.72574193 197.21797901 286.55788177 C197.09378052 288.38768005 197.09378052 288.38768005 196.09378052 289.38768005 C193.65497875 289.48758495 191.24443787 289.52209956 188.80508423 289.5146637 C187.64717385 289.51700368 187.64717385 289.51700368 186.46587133 289.51939094 C183.8594002 289.52340397 181.25298654 289.52021014 178.64651489 289.51707458 C176.78594427 289.51842849 174.92537392 289.52020836 173.06480408 289.52238464 C167.99676932 289.52696024 162.92875481 289.5251689 157.86071968 289.52200556 C152.5693875 289.5194826 147.2780571 289.52181931 141.98672485 289.52339172 C133.09906705 289.52521361 124.21141754 289.52280661 115.32376099 289.51805115 C105.03262273 289.51260849 94.74150428 289.51437114 84.4503665 289.51987755 C75.63171833 289.52440814 66.81307615 289.5250595 57.9944272 289.52243888 C52.71993974 289.52087581 47.4454616 289.52068317 42.17097473 289.52397537 C37.21346288 289.5268533 32.2559767 289.52487984 27.29846764 289.51908112 C25.47347239 289.5177531 23.64847501 289.51814834 21.82348061 289.52034378 C19.34311634 289.52305366 16.86283567 289.51967618 14.38247681 289.5146637 C13.65068254 289.51689442 12.91888827 289.51912514 12.16491842 289.52142346 C7.20793037 289.50182991 7.20793037 289.50182991 6.09378052 288.38768005 C5.99720432 286.969823 5.97006202 285.54717121 5.97073269 284.12602901 C5.96874164 283.20093814 5.96675059 282.27584726 5.96469921 281.32272333 C5.96906847 279.78044064 5.96906847 279.78044064 5.973526 278.20700073 C5.97267158 277.12400493 5.97181715 276.04100913 5.97093683 274.92519528 C5.96927883 271.26610805 5.97480862 267.60706584 5.98025513 263.94798279 C5.98053696 261.33703106 5.98037935 258.72607925 5.97981262 256.11512756 C5.9792872 250.47842371 5.98243588 244.84173139 5.98805046 239.20503044 C5.99616302 231.05521696 5.99878043 222.90540908 6.00003845 214.755592 C6.00222936 201.53440008 6.00889048 188.31321433 6.01834106 175.09202576 C6.02751419 162.2456719 6.03459551 149.39931972 6.03884888 136.55296326 C6.0391116 135.76167215 6.03937432 134.97038105 6.03964501 134.15511142 C6.04095001 130.18560319 6.04221372 126.21609494 6.04345691 122.24658668 C6.05383072 89.29361332 6.07145008 56.34064751 6.09378052 23.38768005 C9.04662771 21.91125646 11.77827035 22.16495067 15.07034302 22.0712738 C15.75559052 22.05049271 16.44083801 22.02971161 17.14685059 22.00830078 C19.33739121 21.94287821 21.5280524 21.88395452 23.71878052 21.82518005 C25.20316802 21.78198787 26.6875433 21.73837335 28.17190552 21.69432068 C31.81240136 21.58720452 35.45303303 21.48591643 39.09378052 21.38768005 C39.09378052 17.42768005 39.09378052 13.46768005 39.09378052 9.38768005 C32.57930617 9.33834523 26.06493989 9.30199154 19.55032349 9.27781677 C17.33285631 9.26774181 15.11540247 9.25408146 12.89797974 9.23680115 C9.7158174 9.21261842 6.53383027 9.20121209 3.35159302 9.19236755 C2.35572174 9.18204498 1.35985046 9.17172241 0.33380127 9.16108704 C-0.58700226 9.16093597 -1.50780579 9.16078491 -2.45651245 9.16062927 C-3.6756282 9.15396744 -3.6756282 9.15396744 -4.91937256 9.14717102 C-7.13834624 9.20846885 -7.13834624 9.20846885 -8.90621948 11.38768005 Z M48.09378052 9.38768005 C48.09378052 13.34768005 48.09378052 17.30768005 48.09378052 21.38768005 C83.40378052 21.38768005 118.71378052 21.38768005 155.09378052 21.38768005 C155.09378052 17.42768005 155.09378052 13.46768005 155.09378052 9.38768005 C119.78378052 9.38768005 84.47378052 9.38768005 48.09378052 9.38768005 Z M14.09378052 30.38768005 C14.09378052 113.21768005 14.09378052 196.04768005 14.09378052 281.38768005 C71.84378052 281.38768005 129.59378052 281.38768005 189.09378052 281.38768005 C189.09378052 198.55768005 189.09378052 115.72768005 189.09378052 30.38768005 C180.84378052 30.38768005 172.59378052 30.38768005 164.09378052 30.38768005 C163.70190552 32.59455505 163.31003052 34.80143005 162.90628052 37.07518005 C161.88786837 42.81044849 160.66356062 45.69695242 156.09378052 49.38768005 C150.86817179 52.65519131 146.60565083 52.82252332 140.63528442 52.79173279 C139.23410118 52.80202766 139.23410118 52.80202766 137.80461121 52.81253052 C134.72636579 52.83078432 131.64863079 52.82696257 128.57034302 52.8212738 C126.42331782 52.82583665 124.27629408 52.83114254 122.12927246 52.8371582 C117.63202985 52.84608682 113.13496484 52.84366937 108.63772583 52.83372498 C102.88546784 52.82224261 97.13382439 52.84243723 91.38164711 52.87164211 C86.94799936 52.89002382 82.5144983 52.88970757 78.08082199 52.88400459 C75.9606172 52.88385158 73.84040235 52.889879 71.72023392 52.90229607 C68.75012382 52.91723915 65.78114144 52.90650382 62.81106567 52.88938904 C61.94223251 52.89905701 61.07339935 52.90872498 60.17823792 52.91868591 C54.36455216 52.84883542 49.95592856 51.65271342 45.09378052 48.38768005 C39.81562114 42.83172282 40.4921415 38.77784597 39.09378052 30.38768005 C30.84378052 30.38768005 22.59378052 30.38768005 14.09378052 30.38768005 Z M48.09378052 30.38768005 C47.87833166 37.27874556 47.87833166 37.27874556 51.09378052 42.38768005 C55.05152378 45.02617556 58.47991435 44.69056409 63.07571411 44.69407654 C63.99470993 44.70240005 64.91370575 44.71072357 65.86054993 44.71929932 C68.90448214 44.74343347 71.94820022 44.75217553 74.99221802 44.7587738 C77.10587632 44.76773737 79.21953395 44.77685916 81.33319092 44.78613281 C85.76674951 44.80263454 90.20023247 44.81032511 94.63381958 44.81321716 C100.31590818 44.81860284 105.99728649 44.85628586 111.67917442 44.90196133 C116.04578245 44.93169827 120.41221873 44.93893999 124.77891922 44.93994331 C126.87371703 44.94415212 128.96851505 44.95661274 131.06321335 44.97746086 C133.99369338 45.00430565 136.92251781 44.99957026 139.85305786 44.98704529 C141.15150383 45.00929672 141.15150383 45.00929672 142.47618103 45.03199768 C146.87477542 44.97844083 148.55756548 44.81672753 152.10882568 41.97521973 C155.6792047 37.32095899 155.09378052 37.27904123 155.09378052 30.38768005 C119.78378052 30.38768005 84.47378052 30.38768005 48.09378052 30.38768005 Z " fill="#FFFFFF" transform="translate(1563.9062194824219,175.61231994628906)"/>
<path d="M0 0 C0.81146484 -0.020625 1.62292969 -0.04125 2.45898438 -0.0625 C5.83875394 -0.0846806 8.46725645 0.01443939 11.62890625 1.265625 C13.85414705 4.34579482 13.35526542 7.60737495 13.0625 11.25 C12.49506531 14.52857096 11.68550026 17.72591571 10.84692383 20.94458008 C10.61111603 21.88083221 10.37530823 22.81708435 10.13235474 23.78170776 C9.35378507 26.86335481 8.56178072 29.94137539 7.76953125 33.01953125 C7.22019677 35.18198015 6.67168246 37.34463755 6.12394714 39.50749207 C4.67938352 45.20199842 3.22329728 50.89349783 1.76489258 56.58447266 C0.29886944 62.31423002 -1.15555639 68.04692821 -2.61132812 73.77929688 C-4.76017063 82.23168269 -6.91255056 90.68315191 -9.07495117 99.13208008 C-9.31470263 100.07102017 -9.5544541 101.00996027 -9.80147076 101.9773531 C-10.99087133 106.62045948 -12.20260329 111.25604904 -13.45474243 115.88265991 C-13.69356549 116.76980777 -13.93238855 117.65695562 -14.17844868 118.57098675 C-14.6307804 120.24534046 -15.08806363 121.91836675 -15.55100536 123.589818 C-16.0570562 125.46525101 -16.5041277 127.35645178 -16.9375 129.25 C-16.6075 129.58 -16.2775 129.91 -15.9375 130.25 C-15.57140625 129.60675781 -15.2053125 128.96351563 -14.828125 128.30078125 C-7.36510953 115.84465305 3.67183679 101.69802318 18.0625 97.25 C26.079563 97.09873466 33.10856422 102.15014404 38.75 107.5 C48.03665867 117.46563607 53.84745899 127.89375174 53.5 141.6875 C53.47691772 143.12464355 53.47691772 143.12464355 53.45336914 144.59082031 C52.35694784 185.89277156 34.49335895 248.81989721 4.69140625 278.7578125 C-7.77564791 290.57650575 -20.7700296 293.85266492 -37.59765625 293.51171875 C-43.55072365 293.25858811 -48.79598979 291.88381462 -54.078125 289.13671875 C-55.87934678 288.08065114 -55.87934678 288.08065114 -57.8125 288.4375 C-60.06901074 289.21771071 -60.06901074 289.21771071 -62.375 290.8125 C-68.35627161 293.22599556 -75.46258561 293.31497376 -81.65234375 291.41796875 C-83.9974776 290.21934478 -85.28255518 289.28130869 -86.9375 287.25 C-88.58685749 279.27427517 -85.62640673 270.82934415 -83.58984375 263.1796875 C-83.22657273 261.77906202 -82.86437126 260.37815879 -82.50314331 258.977005 C-81.5158809 255.16021304 -80.51358341 251.34751249 -79.50867081 247.53533554 C-78.42937232 243.42993655 -77.36438437 239.32082497 -76.29760742 235.2121582 C-74.23295648 227.2694597 -72.15552691 219.3301621 -70.07283688 211.39217663 C-68.43411598 205.14597342 -66.79900616 198.89883783 -65.16699219 192.65087891 C-64.8251752 191.34228299 -64.8251752 191.34228299 -64.47645283 190.00725079 C-64.01524862 188.24145691 -63.55406605 186.47565738 -63.09290504 184.70985222 C-60.02630369 172.96803547 -56.95745604 161.22681482 -53.88110352 149.48754883 C-48.65280208 129.53058505 -43.46006917 109.56489557 -38.31640625 89.5859375 C-37.90573756 87.99134295 -37.90573756 87.99134295 -37.48677254 86.36453438 C-34.81780878 76.00078654 -32.15127791 65.63642472 -29.49341106 55.26982498 C-28.51643989 51.46149064 -27.53715557 47.65375346 -26.55740166 43.84613419 C-26.10747888 42.09525349 -25.65860187 40.34410363 -25.21092415 38.59264755 C-23.81630629 33.1369262 -22.39247068 27.68993053 -20.9375 22.25 C-20.62385372 21.06303591 -20.62385372 21.06303591 -20.30387115 19.85209274 C-19.6774648 17.5030039 -19.0315145 15.16018026 -18.37939453 12.81811523 C-18.19342146 12.11344399 -18.00744839 11.40877275 -17.81583977 10.68274784 C-16.63237033 6.53492253 -15.35929948 3.92284625 -11.9375 1.25 C-7.91923156 -0.08942281 -4.20798313 0.02661175 0 0 Z M5.0625 137.25 C-26.45070079 164.29285182 -37.20296091 212.06731697 -48.0625 250.4375 C-48.35785645 251.47640381 -48.65321289 252.51530762 -48.95751953 253.58569336 C-49.22161621 254.54096924 -49.48571289 255.49624512 -49.7578125 256.48046875 C-49.98742676 257.30957764 -50.21704102 258.13868652 -50.45361328 258.99291992 C-51.07724866 261.51712708 -51.07724866 261.51712708 -50.9375 265.25 C-49.52271865 265.89995297 -48.10558513 266.54478722 -46.6875 267.1875 C-45.89859375 267.54714844 -45.1096875 267.90679687 -44.296875 268.27734375 C-38.01779024 270.86590684 -31.87225128 271.26336588 -25.5 268.8125 C-3.23696839 257.73826472 4.54568138 225.13486835 11.8125 203.6875 C24.27156986 170.23935354 24.27156986 170.23935354 23.1171875 136.00390625 C21.29686588 133.61688073 19.49377296 132.38979675 16.65234375 131.46875 C11.82690439 131.06117141 8.67437536 134.35340601 5.0625 137.25 Z M-18.9375 133.25 C-17.9375 135.25 -17.9375 135.25 -17.9375 135.25 Z " fill="#FFFFFF" transform="translate(1105.9375,184.75)"/>
<path d="M0 0 C1.10601563 0.00386719 2.21203125 0.00773437 3.3515625 0.01171875 C4.50140625 0.03621094 5.65125 0.06070312 6.8359375 0.0859375 C8.57230469 0.08787109 8.57230469 0.08787109 10.34375 0.08984375 C18.93012102 0.18012102 18.93012102 0.18012102 21.2109375 2.4609375 C21.55152648 7.28441074 20.93493493 11.26768354 19.56884766 15.88110352 C19.20588593 17.12411224 18.84292419 18.36712097 18.46896362 19.64779663 C18.06279337 21.00352424 17.65646721 22.35920514 17.25 23.71484375 C16.82712221 25.15067964 16.405116 26.58677248 15.98391724 28.02310181 C15.08188006 31.09274126 14.17406928 34.16058885 13.26159668 37.22714233 C11.82677853 42.04947074 10.40489637 46.87554944 8.98535156 51.70239258 C7.27961478 57.49966273 5.57118698 63.29612419 3.85899353 69.09149075 C-0.41996662 83.5768496 -4.64641222 98.0773392 -8.85772705 112.58248901 C-9.83506325 115.94798854 -10.81541087 119.31260209 -11.79674721 122.6769371 C-12.69690901 125.76460438 -13.59434548 128.85306376 -14.4921875 131.94140625 C-14.81412079 133.04328278 -15.13605408 134.1451593 -15.46774292 135.28042603 C-15.76101471 136.29156464 -16.0542865 137.30270325 -16.35644531 138.34448242 C-16.61065247 139.21763596 -16.86485962 140.09078949 -17.12677002 140.99040222 C-18.24162392 145.14911755 -18.91587485 148.96450975 -18.8515625 153.2734375 C-18.84253906 154.06363281 -18.83351563 154.85382813 -18.82421875 155.66796875 C-18.81261719 156.25964844 -18.80101562 156.85132813 -18.7890625 157.4609375 C-13.9524458 157.4609375 -13.22743881 156.71233262 -9.7890625 153.4609375 C-7.85131094 151.18322953 -6.12465932 148.78748179 -4.4140625 146.3359375 C-3.90294922 145.60729492 -3.39183594 144.87865234 -2.86523438 144.12792969 C3.84977376 134.33688489 9.60022973 123.95812899 15.42529297 113.62353516 C17.05153546 110.74325825 18.69120397 107.8714054 20.33984375 105.00390625 C26.27878155 94.6737004 32.12263262 84.29166043 37.93432617 73.8894043 C42.31245729 66.0546327 46.72980696 58.24283001 51.16015625 50.4375 C54.26970438 44.94295865 57.33742652 39.42729182 60.37109375 33.890625 C60.72647217 33.24283081 61.08185059 32.59503662 61.44799805 31.9276123 C63.18935276 28.75251456 64.92631633 25.57515492 66.65576172 22.39355469 C77.53140986 2.46260483 77.53140986 2.46260483 83.2109375 0.4609375 C86.4326433 0.06508133 89.59347696 0.04172213 92.8359375 0.0859375 C93.69445312 0.07433594 94.55296875 0.06273437 95.4375 0.05078125 C96.2625 0.05464844 97.0875 0.05851562 97.9375 0.0625 C99.06019287 0.06757568 99.06019287 0.06757568 100.20556641 0.07275391 C102.89224447 0.59281942 103.6708461 1.18708224 105.2109375 3.4609375 C106.35076635 8.71518059 105.98967009 12.82330859 104.56225586 17.92480469 C104.37296635 18.64273067 104.18367683 19.36065666 103.98865128 20.10033798 C103.35527591 22.4897187 102.70304864 24.87352605 102.05078125 27.2578125 C101.59234554 28.97229894 101.1351259 30.68711094 100.67903137 32.40222168 C99.44153911 37.04288851 98.18794426 41.67906822 96.93156433 46.31465149 C95.62003687 51.16515398 94.32370187 56.01970939 93.02636719 60.87402344 C91.13664519 67.94011421 89.24243562 75.00497272 87.34258842 82.06834793 C83.82732478 95.13923682 80.34790439 108.21938302 76.88671875 121.3046875 C76.50842832 122.73459896 76.50842832 122.73459896 76.12249565 124.19339752 C74.88241218 128.88115361 73.64277113 133.56902654 72.40335083 138.25695801 C70.31807937 146.14311313 68.22881066 154.0282077 66.13785362 161.91285706 C65.53075964 164.20251718 64.92415415 166.4923063 64.31758118 168.78210449 C63.60349338 171.47728699 62.88661249 174.171699 62.16725159 176.86547852 C61.55364274 179.17246684 60.947309 181.48140959 60.35020447 183.79272461 C60.09243729 184.77668213 59.8346701 185.76063965 59.5690918 186.77441406 C59.35294724 187.61280823 59.13680267 188.45120239 58.91410828 189.31500244 C57.73749982 192.90577358 56.41403386 194.47426012 53.2109375 196.4609375 C49.66320944 197.10420274 46.24338489 197.06920422 42.6484375 196.9609375 C41.23014648 196.96480469 41.23014648 196.96480469 39.78320312 196.96875 C31.9000528 196.85732738 31.9000528 196.85732738 28.2109375 193.4609375 C25.94797394 185.31804911 30.0666987 176.00676803 32.48046875 168.25 C32.92297634 166.79127394 33.36416984 165.33214868 33.80412292 163.87265015 C34.95989366 160.04974201 36.1315621 156.23190391 37.30731201 152.4151001 C38.95549115 147.05447927 40.58196794 141.68722746 42.21061707 136.32064819 C43.07525247 133.47170733 43.94588361 130.62471783 44.82173157 127.77920532 C47.18873226 120.05852868 49.35207568 112.32068456 51.2109375 104.4609375 C50.77450928 105.20851318 50.33808105 105.95608887 49.88842773 106.72631836 C1.86912279 188.93311016 1.86912279 188.93311016 -20.81640625 196.1015625 C-27.21770393 197.2677395 -33.18741752 197.13931235 -38.90625 193.8515625 C-46.13221362 188.51454373 -49.86017317 182.13587074 -51.2890625 173.40625 C-53.26950466 155.21093767 -46.37344357 137.11937186 -41.49414825 119.83120346 C-39.88719303 114.13077429 -38.29391163 108.42649454 -36.70008469 102.7223835 C-36.27832072 101.21310535 -35.85628304 99.70390367 -35.43397903 98.19477654 C-32.1479721 86.44669697 -28.94656654 74.6774696 -25.79120255 62.89366341 C-25.07464121 60.21928082 -24.35625236 57.54539635 -23.63717651 54.87168884 C-23.40190813 53.99679589 -23.16663975 53.12190294 -22.92424202 52.22049809 C-22.45222312 50.46531282 -21.9801508 48.71014192 -21.50802422 46.95498562 C-20.34472042 42.62653716 -19.18679259 38.29677134 -18.03961182 33.96401978 C-16.95626764 29.8724334 -15.86050278 25.78437341 -14.75556946 21.69856644 C-14.34983982 20.18871327 -13.94890411 18.67756263 -13.55308533 17.16508102 C-13.00958586 15.09044431 -12.44951114 13.02097569 -11.88525391 10.9519043 C-11.5753653 9.78894333 -11.26547668 8.62598236 -10.94619751 7.42778015 C-8.71544689 1.70823486 -6.02502863 -0.04884382 0 0 Z " fill="#FFFFFF" transform="translate(915.7890625,280.5390625)"/>
<path d="M0 0 C1.43182617 -0.02416992 1.43182617 -0.02416992 2.89257812 -0.04882812 C3.81361328 -0.04947266 4.73464844 -0.05011719 5.68359375 -0.05078125 C6.5233374 -0.05376221 7.36308105 -0.05674316 8.22827148 -0.05981445 C11.32555384 0.43420872 12.53393468 0.87138474 14.5625 3.3125 C15.52922571 11.1385392 13.22868116 17.90959736 10.90625 25.33203125 C10.32396762 27.2486491 9.74168696 29.16526748 9.15949249 31.08191204 C8.34218872 33.76102073 7.51333476 36.43650233 6.68469238 39.11212158 C5.06733664 44.3444911 3.47382504 49.58421889 1.87576294 54.82250595 C1.28285192 56.76428499 0.68821799 58.70553098 0.09350586 60.64675903 C-3.93299655 73.81668014 -7.70942294 87.05515464 -11.4375 100.3125 C-10.74308304 99.13639915 -10.74308304 99.13639915 -10.03463745 97.9365387 C-1.14814965 82.8884214 7.76718267 67.86205804 16.92626953 52.97753906 C18.00736674 51.21668303 19.08395513 49.4530499 20.15576172 47.68652344 C30.90822177 29.9666848 42.69586202 13.13953013 61.5625 3.3125 C62.45775391 2.80203125 62.45775391 2.80203125 63.37109375 2.28125 C68.09753289 0.00750645 72.97385858 0.00689419 78.125 -0.0625 C79.20599976 -0.08352783 79.20599976 -0.08352783 80.30883789 -0.10498047 C85.41919745 -0.05934703 89.05838694 0.84904893 93.5625 3.3125 C95.0859375 5.07421875 95.0859375 5.07421875 95.9375 7 C96.23398438 7.62261719 96.53046875 8.24523437 96.8359375 8.88671875 C98.70662105 15.13238802 98.67970176 20.42582819 97.40014648 26.78149414 C97.26206038 27.4688543 97.12397429 28.15621447 96.98170376 28.86440372 C95.37837336 36.60209144 93.29169036 44.20313761 91.16015625 51.80859375 C90.72496371 53.38090653 90.29039141 54.95339109 89.85638428 56.52603149 C88.69413286 60.73153317 87.52407825 64.93482504 86.35242081 69.13771439 C85.12518972 73.54489944 83.90487318 77.95399712 82.68432617 82.36303711 C82.18484126 84.16713271 81.68534474 85.9712251 81.18583679 87.77531433 C80.93668707 88.67520773 80.68753735 89.57510113 80.43083763 90.50226402 C79.66847727 93.25445362 78.90517638 96.00638095 78.14167786 98.758255 C74.8877806 110.49112804 71.66501693 122.23212356 68.46982002 133.98111534 C67.77279908 136.5439347 67.07509871 139.10656812 66.37718201 141.66914368 C63.72465271 151.40834612 63.72465271 151.40834612 61.08157349 161.15011597 C60.06670295 164.89820222 59.04713404 168.64497962 58.02411652 172.39085007 C57.65220349 173.7561665 57.28206951 175.12196905 56.91390228 176.48830032 C53.1351661 190.50685542 53.1351661 190.50685542 50.5625 195.3125 C45.66848066 196.94383978 40.62416204 196.49702602 35.5 196.5 C34.38560547 196.51224609 33.27121094 196.52449219 32.12304688 196.53710938 C30.52879883 196.54000977 30.52879883 196.54000977 28.90234375 196.54296875 C27.43849243 196.54913208 27.43849243 196.54913208 25.94506836 196.55541992 C23.5625 196.3125 23.5625 196.3125 21.5625 194.3125 C21.19243758 188.77849229 21.82854713 184.46252197 23.49584961 179.1328125 C23.80650203 178.12321504 23.80650203 178.12321504 24.12343025 177.09322166 C24.80999288 174.87120605 25.5123672 172.65453073 26.21484375 170.4375 C26.70801327 168.85193268 27.20013087 167.26603784 27.69126892 165.67984009 C28.73819877 162.30578535 29.79193556 158.93396625 30.85125732 155.56378174 C32.50796624 150.29258602 34.14933259 145.01669891 35.78759766 139.73974609 C37.44426548 134.40552846 39.10155605 129.07151414 40.76403809 123.73910522 C45.35297243 109.01820872 49.87549222 94.27799418 54.35012817 79.52197266 C55.41708869 76.00478499 56.48752984 72.48867056 57.55834961 68.97265625 C58.20318381 66.8490256 58.84780978 64.72533171 59.4921875 62.6015625 C59.77754868 61.66551178 60.06290985 60.72946106 60.35691833 59.76504517 C63.67938192 49.72401532 63.67938192 49.72401532 64.5625 39.3125 C60.26348392 39.80854032 57.45285006 42.29550479 54.5625 45.3125 C51.49426906 49.39502529 48.71713083 53.65680158 45.9375 57.9375 C45.13391583 59.16056058 44.32971047 60.38321323 43.52490234 61.60546875 C37.55663774 70.6921031 31.70880391 79.8544756 25.95703125 89.07958984 C23.54796773 92.9369594 21.117075 96.78052909 18.6875 100.625 C18.19789795 101.40020996 17.7082959 102.17541992 17.20385742 102.97412109 C1.75867883 127.4187539 1.75867883 127.4187539 -5.66992188 138.83154297 C-14.39238184 152.23223863 -22.84946556 165.79487243 -30.875 179.625 C-39.66946621 194.7231554 -39.66946621 194.7231554 -44.4375 196.3125 C-46.95091281 196.43420805 -49.42440901 196.49760658 -51.9375 196.5 C-52.61425781 196.51224609 -53.29101562 196.52449219 -53.98828125 196.53710938 C-57.70107044 196.54809396 -59.26733076 196.42594616 -62.4375 194.3125 C-64.39527331 188.13834859 -63.08127928 182.1680842 -61.38989258 176.11767578 C-61.15843285 175.24054176 -60.92697311 174.36340775 -60.68849945 173.45969391 C-59.91794638 170.55484654 -59.12507412 167.6565932 -58.33203125 164.7578125 C-57.77799942 162.68692642 -57.22539398 160.61565828 -56.67411804 158.54403687 C-55.1912398 152.98708214 -53.68918269 147.43548191 -52.18325806 141.88473511 C-50.62561081 136.13115364 -49.08494763 130.37303087 -47.54296875 124.61523438 C-45.35826866 116.46319714 -43.16793646 108.31271294 -40.97051048 100.16409683 C-37.61532556 87.72035757 -34.29528498 75.26785054 -31.01001549 62.80547714 C-30.30395293 60.12759715 -29.59686312 57.44999079 -28.88935852 54.77249146 C-28.66320327 53.9166213 -28.43704802 53.06075115 -28.20403957 52.17894554 C-27.75886364 50.49435182 -27.31367162 48.80976235 -26.86846256 47.12517738 C-25.80069148 43.08390861 -24.73457776 39.04221761 -23.67202759 34.99957275 C-22.68796274 31.25696296 -21.6975255 27.51609686 -20.70215797 23.77647781 C-20.34464321 22.42887327 -19.98940103 21.08066328 -19.63669395 19.73179245 C-19.15906149 17.90618112 -18.67251637 16.08290857 -18.18554688 14.25976562 C-17.78474915 12.74268005 -17.78474915 12.74268005 -17.37585449 11.19494629 C-14.00519444 0.84092056 -10.08176298 -0.03389967 0 0 Z " fill="#FFFFFF" transform="translate(147.4375,280.6875)"/>
<path d="M0 0 C2.83654147 3.56209961 1.80138784 8.45167304 1.40739727 12.76739502 C0.74295546 16.28716928 -0.24722027 19.65042193 -1.3238039 23.06427002 C-1.61503635 24.0306842 -1.90626881 24.99709839 -2.20632648 25.99279785 C-3.16836416 29.17223924 -4.15182377 32.34461054 -5.13557148 35.51739502 C-5.82322111 37.77479827 -6.50949815 40.03262005 -7.19448566 42.29083252 C-9.0058324 48.24934964 -10.83531153 54.2021453 -12.66883564 60.15386963 C-14.48141956 66.04787843 -16.27775624 71.94682673 -18.0750246 77.84552002 C-20.88207069 87.05237848 -23.69800608 96.25646811 -26.51984882 105.45880127 C-30.42501504 118.19825669 -34.29201956 130.94908226 -38.14338398 143.70489502 C-38.42589701 144.6405127 -38.70841003 145.57613037 -38.99948406 146.5401001 C-40.53174661 151.61549675 -42.06279331 156.69125844 -43.59260273 161.76739502 C-42.31030491 160.65525163 -41.02940568 159.54149556 -39.74909687 158.42706299 C-39.0356461 157.80701385 -38.32219532 157.18696472 -37.58712482 156.54812622 C-35.24236179 154.45469607 -33.11579159 152.24324736 -31.03010273 149.89239502 C-30.28115742 149.05063721 -29.5322121 148.20887939 -28.76057148 147.34161377 C-26.0953745 144.17699249 -23.65865114 140.87744943 -21.29572773 137.48223877 C-19.08338428 135.25467278 -17.70935296 134.91400998 -14.59260273 134.76739502 C-9.0394981 136.79548541 -3.70108758 140.55619805 0.40739727 144.76739502 C1.34074523 147.99485992 1.84297158 149.86882136 0.35270977 152.94317627 C-1.91295773 155.60266151 -4.20190695 158.22029152 -6.59260273 160.76739502 C-7.49655781 161.73491699 -7.49655781 161.73491699 -8.4187746 162.72198486 C-22.39110967 177.5156206 -40.16515911 195.09990209 -61.84260273 196.07989502 C-65.59260273 195.76739502 -65.59260273 195.76739502 -67.22663593 194.49200439 C-68.69364574 192.63982258 -69.42351971 191.08761725 -70.19807148 188.86114502 C-70.45910664 188.11735596 -70.72014179 187.37356689 -70.9890871 186.60723877 C-71.25012226 185.83509033 -71.51115742 185.06294189 -71.78010273 184.26739502 C-72.05273945 183.49524658 -72.32537617 182.72309814 -72.6062746 181.92755127 C-74.59260273 176.18263233 -74.59260273 176.18263233 -74.59260273 172.76739502 C-77.22925102 175.38958271 -79.84742337 178.02424234 -82.42463398 180.70489502 C-96.73629083 195.49273409 -96.73629083 195.49273409 -106.31135273 196.01739502 C-115.63702488 194.99540355 -123.9518431 186.13074816 -129.63947773 179.31427002 C-131.44169534 176.8651025 -133.04607827 174.38459026 -134.59260273 171.76739502 C-135.24422382 170.71938721 -135.24422382 170.71938721 -135.90900898 169.65020752 C-146.77392977 148.37464835 -134.36791138 113.46501011 -127.60813618 92.53990173 C-103.43312624 18.59920898 -103.43312624 18.59920898 -77.59260273 4.76739502 C-64.82428127 -0.90160016 -49.01896615 -2.90969698 -35.61994648 1.90020752 C-32.87562865 3.07407757 -30.2053823 4.32349052 -27.59260273 5.76739502 C-27.32447773 4.81864502 -27.05635273 3.86989502 -26.78010273 2.89239502 C-25.59260273 -0.23260498 -25.59260273 -0.23260498 -22.59260273 -2.23260498 C-15.56629845 -3.54080578 -6.04605896 -4.67938567 0 0 Z M-70.59260273 32.76739502 C-91.27537596 57.40489632 -101.30528768 96.94580456 -107.59260273 127.76739502 C-107.83623554 128.89661377 -108.07986835 130.02583252 -108.33088398 131.18927002 C-109.83966964 138.94873915 -111.79831783 149.51742851 -108.64729023 157.01739502 C-106.86205909 159.35279173 -104.85177254 160.64463037 -102.21760273 161.89239502 C-98.33036124 161.70728828 -95.68684938 159.94408368 -92.59260273 157.76739502 C-92.05893085 157.40001221 -91.52525898 157.03262939 -90.97541523 156.65411377 C-55.67854713 129.37926115 -45.01884937 70.19631708 -33.59260273 29.76739502 C-36.30581203 26.85807409 -38.60114858 25.82874035 -42.40510273 24.57989502 C-43.42217304 24.23571533 -44.43924335 23.89153564 -45.48713398 23.53692627 C-55.93078366 20.94900302 -63.54928166 25.28297707 -70.59260273 32.76739502 Z " fill="#FFFFFF" transform="translate(595.5926027297974,282.23260498046875)"/>
<path d="M0 0 C0.90814453 -0.020625 1.81628906 -0.04125 2.75195312 -0.0625 C13.65592397 -0.12494221 20.71983944 3.09834648 28.8125 10.25 C29.48152344 10.82492187 30.15054688 11.39984375 30.83984375 11.9921875 C38.31483316 18.8899005 46.89942439 29.94539513 48.1875 40.25 C47.70348268 44.12213858 46.46065734 45.39913355 43.8125 48.25 C41.56878538 49.83331093 39.43407328 51.21571216 37.0625 52.5625 C36.47984375 52.92150391 35.8971875 53.28050781 35.296875 53.65039062 C30.62698323 56.33865069 27.17352824 56.59834875 21.8125 56.25 C21.28140625 55.16460937 20.7503125 54.07921875 20.203125 52.9609375 C19.4898009 51.51551761 18.77624699 50.07021111 18.0625 48.625 C17.71445312 47.91214844 17.36640625 47.19929688 17.0078125 46.46484375 C13.27009269 38.92018709 9.12323604 30.80005252 0.8984375 27.4765625 C-4.16764694 26.40683152 -7.72686551 27.9165119 -12.01953125 30.61328125 C-20.33191307 36.8887551 -25.29149369 45.43218228 -27.0078125 55.67578125 C-27.22711446 57.26120253 -27.4328498 58.84855938 -27.625 60.4375 C-27.71821533 61.18563965 -27.81143066 61.9337793 -27.9074707 62.70458984 C-28.4192954 68.00767865 -27.83238396 72.17183477 -26.1875 77.25 C-21.55491272 82.44411301 -14.6729534 83.72965685 -8.10546875 85.1484375 C2.27453485 87.3950183 10.57619944 89.52833609 17.49609375 98.1640625 C25.05715417 110.14508998 25.47579087 126.01324396 22.73583984 139.55834961 C17.52058236 162.41375691 5.83269081 183.41806761 -14.1875 196.25 C-25.22688197 202.85005755 -37.59402567 203.65330077 -50.125 201.8203125 C-63.50660747 198.34624133 -73.62557837 188.34055295 -81.125 177.125 C-84.62014277 171.03026705 -86.87229283 165.38005179 -85.8203125 158.24755859 C-84.67627573 154.63625116 -82.11166494 152.64902782 -79.25 150.3125 C-78.69892578 149.83232422 -78.14785156 149.35214844 -77.58007812 148.85742188 C-73.31893961 145.18652612 -70.90382044 143.80369219 -65.1484375 143.91796875 C-63.1875 144.25 -63.1875 144.25 -60.9375 146.1875 C-59.54265468 148.62847931 -58.45436751 150.92126004 -57.375 153.5 C-53.85723443 161.75850432 -47.37316929 170.15716536 -39.1875 174.25 C-32.97575387 174.54641112 -28.75617691 172.9327513 -24.03125 168.9765625 C-14.71537367 160.25279695 -9.80983979 150.11474776 -9.00390625 137.33984375 C-8.48213386 125.46002378 -8.48213386 125.46002378 -13.1015625 115.12109375 C-17.45828547 112.47948577 -21.9488455 111.49042174 -26.875 110.3125 C-38.13609695 107.6107604 -48.63490527 104.44486148 -55.1875 94.25 C-62.6546666 79.65715308 -60.70850762 62.94377267 -56.125 47.75 C-51.25763273 34.16961959 -43.38375901 23.32469407 -33.1875 13.25 C-32.49785156 12.55003906 -31.80820312 11.85007812 -31.09765625 11.12890625 C-22.13094981 2.60228357 -11.96663142 0.06652749 0 0 Z " fill="#FFFFFF" transform="translate(324.1875,278.75)"/>
<path d="M0 0 C0.74185547 -0.01160156 1.48371094 -0.02320313 2.24804688 -0.03515625 C6.69923834 -0.01137428 10.0004676 0.24802619 13.4375 3.375 C14.58835037 7.83173202 14.32194095 11.05145057 13.17407227 15.47216797 C12.87368546 16.65293915 12.57329865 17.83371033 12.2638092 19.05026245 C11.93054123 20.30984772 11.59727325 21.56943298 11.25390625 22.8671875 C10.9151357 24.18113957 10.57741834 25.4953636 10.2407074 26.80984497 C9.35520004 30.25506268 8.45550237 33.69641702 7.55273438 37.137146 C6.6326271 40.65430077 5.72607776 44.17494413 4.81835938 47.6953125 C3.0379455 54.59200317 1.24250723 61.48470121 -0.5625 68.375 C0.08823486 68.36452637 0.73896973 68.35405273 1.40942383 68.34326172 C4.3562433 68.30170165 7.30300111 68.27567392 10.25 68.25 C11.27416016 68.23324219 12.29832031 68.21648437 13.35351562 68.19921875 C14.33642578 68.19277344 15.31933594 68.18632812 16.33203125 68.1796875 C17.23800049 68.16921387 18.14396973 68.15874023 19.07739258 68.14794922 C21.4375 68.375 21.4375 68.375 24.4375 70.375 C26.02400719 74.73011778 24.97843706 78.034458 23.6875 82.375 C23.34203125 83.57125 22.9965625 84.7675 22.640625 86 C20.01376035 93.36886708 20.01376035 93.36886708 16.67578125 95.49951172 C13.97914145 96.55428379 11.90795818 96.60244954 9.015625 96.5703125 C7.99082031 96.56386719 6.96601563 96.55742187 5.91015625 96.55078125 C4.31494141 96.52564453 4.31494141 96.52564453 2.6875 96.5 C1.60855469 96.49097656 0.52960938 96.48195313 -0.58203125 96.47265625 C-3.24242421 96.44911295 -5.90231055 96.41450634 -8.5625 96.375 C-8.66119385 96.9846611 -8.7598877 97.5943222 -8.86157227 98.22245789 C-10.30855162 106.68205416 -12.37792263 114.96050387 -14.5 123.26953125 C-14.89686939 124.83494503 -15.29342675 126.40043794 -15.68969727 127.96600342 C-16.75476197 132.16929831 -17.82462782 136.37135551 -18.89599609 140.57304764 C-19.56416263 143.19402189 -20.23144779 145.81521896 -20.8984375 148.43649292 C-22.72963196 155.63285316 -24.56138956 162.82906745 -26.39746094 170.02418518 C-28.89528317 179.81421322 -31.38177921 189.60694415 -33.84837341 199.40488911 C-35.49362815 205.93983996 -37.14636309 212.47286344 -38.80519104 219.00438213 C-39.778707 222.83887513 -40.74829882 226.67426369 -41.70849609 230.51211548 C-42.60610871 234.09908868 -43.51462093 237.6831228 -44.43154907 241.26520538 C-44.92079148 243.18823139 -45.39846965 245.11418806 -45.87573242 247.04022217 C-47.37478318 252.85388509 -48.64489375 257.74927246 -52.5625 262.375 C-56.44460389 264.65048995 -60.12142204 264.67314307 -64.5625 264.6875 C-65.75875 264.70425781 -66.955 264.72101563 -68.1875 264.73828125 C-72.79016063 264.24285597 -75.33485227 262.60264773 -78.5625 259.375 C-80.22102412 249.79540417 -76.77766169 239.98774973 -74.34765625 230.80859375 C-73.89918796 229.0748203 -73.45191625 227.34073696 -73.00575256 225.60636902 C-71.80822215 220.96440426 -70.59469354 216.32676266 -69.3780899 211.68976593 C-68.11786918 206.87494882 -66.87277464 202.05622592 -65.62646484 197.23779297 C-63.60043338 189.41137037 -61.56646819 181.58705371 -59.52685547 173.76416016 C-56.76944439 163.1852873 -54.03720981 152.60005951 -51.31640625 142.01171875 C-51.11545664 141.22984884 -50.91450703 140.44797894 -50.70746803 139.642416 C-49.92611199 136.60217756 -49.14482555 133.56192127 -48.36377048 130.52160549 C-46.41658195 122.94285323 -44.46273873 115.36582196 -42.5078125 107.7890625 C-42.05475487 106.03301949 -42.05475487 106.03301949 -41.59254456 104.24150085 C-40.9159578 101.61930943 -40.23928705 98.99713973 -39.5625 96.375 C-41.35107422 96.40980469 -41.35107422 96.40980469 -43.17578125 96.4453125 C-44.74218124 96.46407178 -46.308588 96.48227181 -47.875 96.5 C-48.66068359 96.51675781 -49.44636719 96.53351563 -50.25585938 96.55078125 C-51.01318359 96.55722656 -51.77050781 96.56367188 -52.55078125 96.5703125 C-53.24727783 96.58078613 -53.94377441 96.59125977 -54.66137695 96.60205078 C-56.5625 96.375 -56.5625 96.375 -59.5625 94.375 C-60.52122015 87.11611886 -58.41873712 80.03955328 -55.5625 73.375 C-53.64351766 71.15850102 -52.17707927 69.68228963 -49.5625 68.375 C-48.18701844 68.29191362 -46.80764204 68.26763984 -45.4296875 68.27734375 C-44.62402344 68.28056641 -43.81835938 68.28378906 -42.98828125 68.28710938 C-41.72564453 68.29967773 -41.72564453 68.29967773 -40.4375 68.3125 C-39.58800781 68.31701172 -38.73851562 68.32152344 -37.86328125 68.32617188 C-35.76299091 68.33797126 -33.6627367 68.35590694 -31.5625 68.375 C-31.45599121 67.29162354 -31.34948242 66.20824707 -31.23974609 65.09204102 C-30.54591985 59.57537397 -29.13287149 54.27368395 -27.7265625 48.90234375 C-27.44654388 47.8204628 -27.16652527 46.73858185 -26.87802124 45.62391663 C-26.28706854 43.34652736 -25.69356583 41.06979843 -25.09765625 38.79370117 C-24.19002232 35.32214746 -23.29372223 31.84780316 -22.3984375 28.37304688 C-21.82099294 26.1534687 -21.24289003 23.93406167 -20.6640625 21.71484375 C-20.39832428 20.68238022 -20.13258606 19.64991669 -19.85879517 18.58616638 C-16.15337636 4.52305511 -16.15337636 4.52305511 -11.91015625 1.4609375 C-7.80803027 0.13025953 -4.28178541 -0.06731191 0 0 Z " fill="#FFFFFF" transform="translate(452.5625,212.625)"/>
<path d="M0 0 C0.80308594 -0.03738281 1.60617188 -0.07476562 2.43359375 -0.11328125 C6.52895777 -0.17400329 8.64169161 0.07616046 12.1953125 2.2734375 C15.47996003 7.55281024 14.60617103 12.84170601 13.47155762 18.8152771 C12.5163724 22.90565231 11.48171999 26.96811899 10.41796875 31.03125 C10.02109561 32.58315047 9.62528522 34.13532305 9.23045349 35.68774414 C8.16174449 39.87741376 7.07838183 44.06316777 5.99237823 48.24838257 C4.84135221 52.69521562 3.70440119 57.14564571 2.56591797 61.59570312 C0.44755559 69.86756826 -1.68231574 78.13641751 -3.81750488 86.40395355 C-6.10631904 95.26726908 -8.38432715 104.13334287 -10.66015625 113 C-11.42776453 115.99024753 -12.19543305 118.98047958 -12.96313477 121.97070312 C-13.15189776 122.70601006 -13.34066076 123.44131699 -13.53514385 124.19890594 C-14.68012153 128.65824983 -15.82687497 133.11713292 -16.974967 137.57567596 C-21.61930745 155.61276939 -26.2218702 173.65998232 -30.78125 191.71875 C-31.03046833 192.70565323 -31.27968666 193.69255646 -31.53645706 194.70936584 C-33.99022535 204.42724382 -36.4414297 214.1457605 -38.88592911 223.86597443 C-39.79003182 227.45948427 -40.69581027 231.05257052 -41.60188293 234.64558411 C-42.01880967 236.30072252 -42.434957 237.95605753 -42.85020447 239.61161804 C-43.98008549 244.11618786 -45.12657029 248.61590553 -46.2939682 253.11090088 C-46.69687828 254.6809154 -47.0918271 256.25298621 -47.48044586 257.82659912 C-48.0885278 260.28843238 -48.71844629 262.7438474 -49.35205078 265.19921875 C-49.62010938 266.31910942 -49.62010938 266.31910942 -49.8935833 267.46162415 C-51.18144875 272.33356822 -52.84341228 275.10564824 -56.875 278.375 C-60.68092493 279.64364164 -64.28370641 279.59820072 -68.25 279.625 C-69.38308594 279.6559375 -69.38308594 279.6559375 -70.5390625 279.6875 C-75.14857365 279.71973434 -78.12624486 279.35663536 -81.875 276.375 C-85.84426259 268.43647482 -81.05088722 257.01732468 -78.94921875 248.94140625 C-78.53012724 247.2986873 -78.11198394 245.65572619 -77.69471741 244.01254272 C-76.56585321 239.57833524 -75.42375758 235.14763316 -74.27922058 230.71744919 C-73.0673195 226.01683988 -71.8678756 221.31305275 -70.66699219 216.60961914 C-68.45036147 207.93556823 -66.22318164 199.2642689 -63.99068642 190.59428883 C-62.46359358 184.66356502 -60.93918701 178.73216324 -59.41845703 172.79980469 C-59.2262964 172.05018746 -59.03413576 171.30057024 -58.83615208 170.52823734 C-58.45530526 169.04241078 -58.07447901 167.55657895 -57.69367409 166.07074165 C-55.2542307 156.55276762 -52.81235533 147.03543586 -50.36010742 137.52075195 C-45.90289679 120.2211737 -41.48402209 102.91232876 -37.10001373 85.59404182 C-35.3791592 78.79867905 -33.65483161 72.00419631 -31.93081284 65.20963573 C-30.23961559 58.54217652 -28.55457102 51.87319923 -26.87382889 45.20309734 C-25.82522535 41.04773972 -24.77089043 36.89385175 -23.71503448 32.74033165 C-23.22216997 30.79640095 -22.7317399 28.8518512 -22.24388885 26.90665627 C-21.57195925 24.22875177 -20.89150323 21.55315171 -20.20898438 18.87792969 C-20.01580502 18.0992047 -19.82262566 17.32047972 -19.62359238 16.51815701 C-18.18668524 10.9409935 -16.56833104 5.09055374 -11.875 1.375 C-7.88095224 0.04365075 -4.18404364 0.07317087 0 0 Z " fill="#FFFFFF" transform="translate(84.875,197.625)"/>
<path d="M0 0 C3.125 -0.1875 3.125 -0.1875 6 0 C7.38226016 2.76452033 7.09525387 5.0461363 7.0625 8.125 C7.05347656 9.22070312 7.04445313 10.31640625 7.03515625 11.4453125 C7.02355469 12.28835938 7.01195312 13.13140625 7 14 C8.27875 14.04125 9.5575 14.0825 10.875 14.125 C19.8946461 15.17280818 26.65917188 20.76848608 32.30859375 27.58203125 C36.87169293 34.10526079 39.44145137 41.98030005 39 50 C38.34 50.99 37.68 51.98 37 53 C33.875 53.1875 33.875 53.1875 31 53 C30.731875 52.05125 30.46375 51.1025 30.1875 50.125 C29.99929688 49.48691406 29.81109375 48.84882813 29.6171875 48.19140625 C29.18809743 46.66786491 28.80031004 45.13233305 28.4453125 43.58984375 C26.60705186 36.24814846 23.37749406 30.81760345 16.90625 26.65234375 C13.59215217 24.92728163 10.65393733 23.91348433 7 23 C7 40.49 7 57.98 7 76 C9.64 76.33 12.28 76.66 15 77 C25.91844269 80.93189256 32.95075178 87.65952681 38 98 C41.37899392 106.42323366 40.93480706 116.10769327 38.03125 124.58984375 C34.17600049 133.60002915 28.07331115 140.21845641 19.1171875 144.3203125 C14.83579556 145.95294996 11.62109739 147 7 147 C7.02320313 147.84304688 7.04640625 148.68609375 7.0703125 149.5546875 C7.08835937 150.65039062 7.10640625 151.74609375 7.125 152.875 C7.14820313 153.96554687 7.17140625 155.05609375 7.1953125 156.1796875 C7 159 7 159 5 161 C1.9375 160.75 1.9375 160.75 -1 160 C-2.28446919 157.43106162 -2.32977144 155.23423663 -2.5625 152.375 C-2.64628906 151.37210938 -2.73007813 150.36921875 -2.81640625 149.3359375 C-2.87699219 148.56507813 -2.93757813 147.79421875 -3 147 C-3.68964844 146.79246094 -4.37929687 146.58492187 -5.08984375 146.37109375 C-14.92843696 143.14554673 -22.2837686 138.39825102 -27.78125 129.46484375 C-30.65191013 123.65911766 -32.97685835 116.51238898 -32 110 C-30.8125 108.0625 -30.8125 108.0625 -29 107 C-24.57894737 107.42105263 -24.57894737 107.42105263 -23 109 C-22.75248024 110.64317336 -22.52742439 112.28974631 -22.3125 113.9375 C-20.96532449 121.55498504 -17.77039508 128.24506626 -11.5 133 C-8.37439857 135.08373428 -5.80314276 135.73228575 -2 137 C-2 119.51 -2 102.02 -2 84 C-4.64 83.67 -7.28 83.34 -10 83 C-19.85270325 78.78750994 -26.46412504 71.94522425 -31.0546875 62.4296875 C-34.63712494 53.22193508 -34.06736471 42.60241969 -30.328125 33.5703125 C-25.47476868 24.17764056 -18.80841422 18.16664517 -8.9921875 14.48046875 C-6.61466513 13.9070663 -4.43666803 13.91990192 -2 14 C-2.02320313 13.24074219 -2.04640625 12.48148437 -2.0703125 11.69921875 C-2.09738281 10.20841797 -2.09738281 10.20841797 -2.125 8.6875 C-2.14820313 7.70136719 -2.17140625 6.71523438 -2.1953125 5.69921875 C-2 3 -2 3 0 0 Z M-16 29 C-21.69419439 34.85688566 -24.0331189 40.62090297 -24.4375 48.75 C-24.2686744 56.32839368 -21.99458977 61.77255786 -16.83984375 67.328125 C-12.35193153 71.49386656 -8.37942195 75 -2 75 C-2 57.84 -2 40.68 -2 23 C-7.79390254 23 -11.42364336 25.59299632 -16 29 Z M7 85 C7 102.49 7 119.98 7 138 C16.81079386 135.81982359 22.55631741 133.2077456 28.03515625 124.77734375 C31.34638496 118.67771192 32.14398991 111.57595962 30.46484375 104.859375 C27.29549644 95.78430402 21.80227913 89.90113956 13.25 85.625 C10.74685351 84.82157076 10.74685351 84.82157076 7 85 Z " fill="#FFFFFF" transform="translate(1662,263)"/>
<path d="M0 0 C6.13693082 5.05691175 11.11459119 11.27019347 12.5625 19.26953125 C13.39780078 30.90896841 12.46579053 39.80120345 4.9375 49.08203125 C-0.41477013 54.75563842 -7.79028408 58.92591892 -15.66015625 59.5078125 C-26.95847342 59.72619299 -35.24789304 58.16697783 -43.68359375 50.19140625 C-50.90745386 42.27572881 -52.89785414 34.07367132 -52.6796875 23.48046875 C-52.02533029 14.80495866 -48.480916 8.47628282 -42.4375 2.26953125 C-30.1898465 -7.8575038 -13.17714354 -9.35492723 0 0 Z " fill="#FFFFFF" transform="translate(1980.4375,306.73046875)"/>
<path d="M0 0 C7.02267869 4.94620559 10.835162 11.10463058 14.0390625 18.96875 C15.9955164 30.3161826 14.46734284 39.29742125 7.9765625 48.84375 C3.22063009 54.7916756 -3.02184903 58.61210041 -10.3359375 60.59375 C-21.62760086 61.67273117 -30.7373257 60.58195791 -39.6484375 53.34375 C-46.1573792 47.21614024 -50.48815267 39.75681153 -50.81860352 30.71850586 C-50.89910976 20.55997807 -49.12921929 13.13569676 -42.28515625 5.22265625 C-30.80350269 -5.8919107 -13.88551313 -8.35917178 0 0 Z " fill="#FFFFFF" transform="translate(1385.3359375,305.40625)"/>
<path d="M0 0 C1.9535675 0.76402283 1.9535675 0.76402283 3.39814758 3.86338806 C3.93448596 5.49115485 4.44983624 7.12587192 4.9535675 8.76402283 C5.48208817 10.39889145 5.48208817 10.39889145 6.02128601 12.06678772 C7.3159316 16.09604755 8.58196958 20.13346554 9.84028625 24.17417908 C10.18368514 25.27538999 10.18368514 25.27538999 10.53402138 26.39884758 C11.74290082 30.27692869 12.94866421 34.15596342 14.15205383 38.03575134 C15.39116883 42.0282854 16.64173433 46.01713724 17.89482403 50.00530338 C18.86138168 53.08915725 19.8191335 56.17569556 20.77456093 59.26301384 C21.23172269 60.73476343 21.6922052 62.20548598 22.15614891 63.67511177 C22.80462604 65.73199997 23.44043186 67.79241799 24.07344055 69.85411072 C24.43745468 71.02244949 24.80146881 72.19078827 25.17651367 73.39453125 C26.00898926 77.00434485 26.25160649 80.07274036 25.9535675 83.76402283 C23.7035675 85.82652283 23.7035675 85.82652283 20.9535675 86.76402283 C18.90888977 86.1502533 18.90888977 86.1502533 16.9535675 84.76402283 C15.81269836 82.43247986 15.81269836 82.43247986 14.91841125 79.52183533 C14.58389954 78.45449158 14.24938782 77.38714783 13.90473938 76.28746033 C13.57022766 75.16597595 13.23571594 74.04449158 12.8910675 72.88902283 C12.38349915 71.26480408 12.38349915 71.26480408 11.86567688 69.60777283 C9.63076482 62.36268075 7.79884531 55.14513403 5.9535675 47.76402283 C-1.3064325 52.05402283 -8.5664325 56.34402283 -16.0464325 60.76402283 C-13.71828889 70.21689032 -13.71828889 70.21689032 -10.9683075 79.48277283 C-10.61252625 80.59910095 -10.256745 81.71542908 -9.8901825 82.86558533 C-9.15043402 85.16408953 -8.40549664 87.46092917 -7.6558075 89.75621033 C-7.3051825 90.86222595 -6.9545575 91.96824158 -6.5933075 93.10777283 C-6.27200867 94.09970642 -5.95070984 95.09164001 -5.61967468 96.1136322 C-5.03009908 98.83954053 -5.01080966 100.20274378 -6.0464325 102.76402283 C-8.9733848 105.59004574 -9.79748525 105.76402283 -14.0464325 105.76402283 C-19.87287293 88.93097905 -25.26295639 71.95612128 -30.55986023 54.95018005 C-31.3011 52.57546141 -32.04638421 50.20200143 -32.79570007 47.82981873 C-33.86211934 44.44936631 -34.91317402 41.06449605 -35.960495 37.67808533 C-36.28712128 36.65198151 -36.61374756 35.62587769 -36.95027161 34.56867981 C-37.24191193 33.61430023 -37.53355225 32.65992065 -37.83403015 31.67662048 C-38.0933432 30.84538666 -38.35265625 30.01415283 -38.61982727 29.1577301 C-39.11922468 26.35558155 -38.89019014 24.47467871 -38.0464325 21.76402283 C-35.7339325 19.82652283 -35.7339325 19.82652283 -33.0464325 18.76402283 C-31.02592468 19.28892517 -31.02592468 19.28892517 -29.0464325 20.76402283 C-27.76615906 23.65318298 -27.76615906 23.65318298 -26.6870575 27.30308533 C-26.49295288 27.94394073 -26.29884827 28.58479614 -26.09886169 29.24507141 C-25.48342137 31.28901457 -24.88975886 33.33856377 -24.2964325 35.38902283 C-23.88248816 36.77746788 -23.46713967 38.16549513 -23.05033875 39.55308533 C-22.03271065 42.95203779 -21.03451276 46.35634781 -20.0464325 49.76402283 C-16.64449626 49.76402283 -15.69927995 49.14420351 -12.88627625 47.35777283 C-12.09285828 46.86148376 -11.29944031 46.3651947 -10.48197937 45.85386658 C-9.6576239 45.32921814 -8.83326843 44.8045697 -7.9839325 44.26402283 C-6.34971826 43.22880852 -4.7131115 42.19735838 -3.07377625 41.17027283 C-2.34924255 40.70943298 -1.62470886 40.24859314 -0.8782196 39.77378845 C0.9535675 38.76402283 0.9535675 38.76402283 2.9535675 38.76402283 C2.72169739 38.07364929 2.48982727 37.38327576 2.25093079 36.67198181 C1.19186792 33.51569924 0.13519882 30.3586202 -0.9214325 27.20152283 C-1.28623718 26.11548767 -1.65104187 25.02945251 -2.02690125 23.9105072 C-7.68682766 6.98218183 -7.68682766 6.98218183 -6.0464325 2.76402283 C-3.98415897 0.63063642 -3.00862871 -0.34692945 0 0 Z " fill="#FFFFFF" transform="translate(1816.0464324951172,525.2359771728516)"/>
<path d="M0 0 C3.375 1 3.375 1 4.5859375 3.0625 C4.97652344 4.0215625 4.97652344 4.0215625 5.375 5 C0.02971169 11.3364676 -5.72336114 17.18375463 -11.625 23 C-13.2928277 24.66550482 -14.95981547 26.33185251 -16.625 28 C-13.5584661 30.06781673 -10.46954754 32.09939631 -7.375 34.125 C-6.50230469 34.71410156 -5.62960937 35.30320313 -4.73046875 35.91015625 C-3.46396484 36.73193359 -3.46396484 36.73193359 -2.171875 37.5703125 C-1.00930176 38.34012451 -1.00930176 38.34012451 0.17675781 39.12548828 C2.33372814 40.25027847 2.33372814 40.25027847 4.44287109 39.3581543 C6.46008113 37.94019379 8.11798793 36.46798228 9.8359375 34.69921875 C10.47273438 34.05146484 11.10953125 33.40371094 11.765625 32.73632812 C12.42046875 32.06021484 13.0753125 31.38410156 13.75 30.6875 C22.6597383 21.53815718 22.6597383 21.53815718 27.375 18 C30.43033046 18 31.77221934 18.57805354 34.25 20.3125 C35.375 22 35.375 22 35.11157227 23.91870117 C34.29801924 26.21752104 33.444747 27.29147527 31.71484375 28.98828125 C31.16763672 29.53033203 30.62042969 30.07238281 30.05664062 30.63085938 C29.48107422 31.18580078 28.90550781 31.74074219 28.3125 32.3125 C27.76400391 32.85583984 27.21550781 33.39917969 26.65039062 33.95898438 C23.73966468 36.81574553 20.75963509 39.5487782 17.66015625 42.19921875 C12.11474169 47.00533367 7.02528369 52.27973511 1.875 57.5 C-9.89805844 69.43302882 -9.89805844 69.43302882 -16.07788086 74.62890625 C-17.80999753 76.09249318 -17.80999753 76.09249318 -19.6875 78.5 C-21.625 80 -21.625 80 -25.25 80 C-28.625 79 -28.625 79 -29.8359375 76.9375 C-30.22652344 75.9784375 -30.22652344 75.9784375 -30.625 75 C-26.35213251 69.85702131 -21.77922781 65.04535567 -17.0625 60.3125 C-16.52085205 59.76634033 -15.9792041 59.22018066 -15.42114258 58.6574707 C-12.7857174 56.03162164 -10.12730514 53.55742567 -7.22265625 51.23046875 C-6.36542969 50.49441406 -5.50820312 49.75835937 -4.625 49 C-4.625 48.34 -4.625 47.68 -4.625 47 C-7.35968753 44.84393335 -10.4040728 43.12376313 -13.375 41.3125 C-14.2 40.78849609 -15.025 40.26449219 -15.875 39.72460938 C-16.67421875 39.23412109 -17.4734375 38.74363281 -18.296875 38.23828125 C-19.39660645 37.5582605 -19.39660645 37.5582605 -20.51855469 36.86450195 C-22.56027164 35.84564158 -22.56027164 35.84564158 -24.65625 36.13696289 C-27.14515726 37.22802033 -28.56443019 38.61650667 -30.453125 40.5703125 C-31.17113281 41.3025 -31.88914062 42.0346875 -32.62890625 42.7890625 C-33.37011719 43.55992188 -34.11132812 44.33078125 -34.875 45.125 C-50.79399988 61.52468016 -50.79399988 61.52468016 -55.625 62 C-58.375 60.0625 -58.375 60.0625 -60.625 58 C-60.04808747 54.86559667 -59.23367612 53.23714281 -56.96484375 51.01171875 C-56.41763672 50.46966797 -55.87042969 49.92761719 -55.30664062 49.36914062 C-54.73107422 48.81419922 -54.15550781 48.25925781 -53.5625 47.6875 C-53.01400391 47.14416016 -52.46550781 46.60082031 -51.90039062 46.04101562 C-48.98966468 43.18425447 -46.00963509 40.4512218 -42.91015625 37.80078125 C-37.36474169 32.99466633 -32.27528369 27.72026489 -27.125 22.5 C-15.35194156 10.56697118 -15.35194156 10.56697118 -9.17211914 5.37109375 C-7.44000247 3.90750682 -7.44000247 3.90750682 -5.5625 1.5 C-3.625 0 -3.625 0 0 0 Z " fill="#FFFFFF" transform="translate(1836.625,29)"/>
<path d="M0 0 C4.9838164 0.49708208 7.96386471 1.96969967 12.0546875 4.81640625 C12.60109894 5.19232407 13.14751038 5.56824188 13.71047974 5.95555115 C15.439018 7.14807627 17.15696185 8.35491093 18.875 9.5625 C20.05141166 10.377923 21.22848906 11.19238643 22.40625 12.00585938 C25.27861713 13.99286613 28.14167551 15.99282807 31 18 C30.505 16.515 30.505 16.515 30 15 C29.35538366 12.31685336 28.92178646 9.76540737 29 7 C31.50998281 3.18482612 34.60895359 1.9288752 39 1 C51.15165016 0.79048879 61.39298638 10.35789822 70 18 C70.85207031 18.74507813 71.70414063 19.49015625 72.58203125 20.2578125 C77.54579574 24.86072174 81.29436894 29.06328789 82 36 C81.59913264 41.45179606 79.86437994 45.39208444 77 50 C76.64763503 51.99673484 76.31165441 53.99650739 76 56 C75.01 56.99 75.01 56.99 74 58 C69.19070553 57.81140022 65.82874901 55.08791944 62.0625 52.375 C60.62945876 51.36640202 59.19583261 50.35863474 57.76171875 49.3515625 C56.9939209 48.80918945 56.22612305 48.26681641 55.43505859 47.70800781 C51.11293749 44.67636963 46.74125084 41.71755017 42.375 38.75 C40.50248793 37.47412891 38.63009364 36.19808494 36.7578125 34.921875 C32.85737957 32.26473005 28.95616227 29.60873992 25.0546875 26.953125 C24.08225098 26.29086914 23.10981445 25.62861328 22.10791016 24.94628906 C20.26682043 23.6924733 18.42537645 22.43917747 16.58349609 21.18652344 C14.89605133 20.0371743 13.21122871 18.88396414 11.52929688 17.7265625 C9.75610585 16.51613712 7.96967661 15.32498509 6.17382812 14.1484375 C5.26568359 13.54257812 4.35753906 12.93671875 3.421875 12.3125 C2.5978418 11.77238281 1.77380859 11.23226563 0.92480469 10.67578125 C-1.25455326 8.77837981 -1.76062338 7.84985652 -2 5 C-1.0625 2.25 -1.0625 2.25 0 0 Z M40 11 C39.05737757 13.5174916 38.87708814 14.66952944 39.828125 17.2265625 C44.1373441 24.49541009 49.49385669 29.66378414 56 35 C56.79591553 35.65790527 56.79591553 35.65790527 57.60791016 36.32910156 C63.32879807 41.76110148 63.32879807 41.76110148 70.28515625 43.80078125 C71.99051935 43.12331688 71.99051935 43.12331688 73 42 C73.61644275 39.10271906 73.75907223 37.80194446 73 35 C66.29339814 24.8978642 54.19406449 15.56054479 43 11 C42.01 11 41.02 11 40 11 Z " fill="#FFFFFF" transform="translate(1889,409)"/>
<path d="M0 0 C3.05514049 0.93688275 3.8207626 1.79553997 5.63647461 4.37646484 C6.18053955 5.1334668 6.72460449 5.89046875 7.28515625 6.67041016 C7.85613037 7.49379883 8.42710449 8.3171875 9.01538086 9.16552734 C10.25193771 10.89759975 11.48892991 12.62936143 12.72631836 14.36083984 C13.35892578 15.25577148 13.9915332 16.15070313 14.64331055 17.07275391 C17.75082804 21.43833755 20.94870647 25.73631182 24.14038086 30.04052734 C25.79053201 32.27348198 27.43829431 34.50798967 29.078125 36.74853516 C30.07336974 38.10361037 31.07772653 39.45204273 32.09130859 40.79345703 C35.58473564 45.48891691 35.58473564 45.48891691 35.51538086 48.54052734 C34.57788086 50.79052734 34.57788086 50.79052734 32.57788086 53.79052734 C30.44116211 53.79443359 30.44116211 53.79443359 27.57788086 52.79052734 C25.32000715 50.31580002 23.56712483 47.54490611 21.76538086 44.72802734 C21.26329102 43.96941406 20.76120117 43.21080078 20.24389648 42.42919922 C19.00821184 40.55801961 17.7871512 38.67884217 16.57788086 36.79052734 C16.75963867 37.3189624 16.94139648 37.84739746 17.12866211 38.3918457 C17.95922155 40.83267887 18.76857785 43.28006803 19.57788086 45.72802734 C19.86405273 46.55882812 20.15022461 47.38962891 20.44506836 48.24560547 C22.59728398 54.8303604 23.8820833 61.1080734 21.51538086 67.79052734 C19.57788086 69.79052734 19.57788086 69.79052734 16.26538086 70.85302734 C11.831004 70.77786841 9.67574841 69.7882151 6.57788086 66.79052734 C-0.04568645 59.51070797 -5.5669746 51.15716796 -11.27368164 43.15771484 C-13.16026471 40.51968649 -15.0745516 37.91701901 -17.07055664 35.36083984 C-17.80532227 34.40951172 -18.54008789 33.45818359 -19.29711914 32.47802734 C-20.25231445 31.27726563 -20.25231445 31.27726563 -21.22680664 30.05224609 C-22.42211914 27.79052734 -22.42211914 27.79052734 -22.19946289 25.11083984 C-21.33113295 22.51894043 -20.65480756 21.36167846 -18.42211914 19.79052734 C-17.10211914 19.79052734 -15.78211914 19.79052734 -14.42211914 19.79052734 C-12.55603684 22.07095357 -10.99815563 24.25707424 -9.42211914 26.72802734 C-8.4518955 28.19231871 -7.48049943 29.65583378 -6.50805664 31.11865234 C-6.005 31.88371094 -5.50194336 32.64876953 -4.98364258 33.43701172 C-2.40161409 37.32862438 0.27009357 41.15547465 2.95288086 44.97802734 C3.6837793 46.03654907 3.6837793 46.03654907 4.42944336 47.11645508 C7.19861401 51.06908482 10.05328429 54.49022328 13.57788086 57.79052734 C8.8245078 44.28083164 3.72591658 30.97198982 -1.91552734 17.80493164 C-2.37145264 16.71736572 -2.82737793 15.6297998 -3.29711914 14.50927734 C-3.70704102 13.54957031 -4.11696289 12.58986328 -4.53930664 11.60107422 C-5.51614592 8.49118101 -5.6649384 6.03193538 -5.42211914 2.79052734 C-3.78856762 0.12525908 -3.13525937 -0.27114732 0 0 Z " fill="#FFFFFF" transform="translate(1887.422119140625,485.20947265625)"/>
<path d="M0 0 C2.375 2.5 2.375 2.5 4 5 C3.02641247 7.53224174 2.48986914 8.75027231 0.02880859 10.00488281 C-0.75671387 10.23530273 -1.54223633 10.46572266 -2.3515625 10.703125 C-3.20234375 10.9609375 -4.053125 11.21875 -4.9296875 11.484375 C-5.81914063 11.73703125 -6.70859375 11.9896875 -7.625 12.25 C-8.5221875 12.518125 -9.419375 12.78625 -10.34375 13.0625 C-12.55878824 13.72229863 -14.77706718 14.36741176 -17 15 C-16.01773437 15.01401855 -16.01773437 15.01401855 -15.015625 15.02832031 C-12.00969095 15.0824526 -9.00524225 15.16601389 -6 15.25 C-4.45505859 15.27126953 -4.45505859 15.27126953 -2.87890625 15.29296875 C4.65176767 15.53279913 10.30691157 16.64264688 16.0625 21.875 C17 24 17 24 17.1875 27 C15.70444427 30.74666712 13.90728486 31.32613829 10.37216187 32.98471069 C6.23740911 34.75439189 2.02235707 36.248208 -2.23046875 37.70703125 C-3.18391678 38.03668381 -4.13736481 38.36633636 -5.1197052 38.70597839 C-7.1213332 39.39544956 -9.12401311 40.0818738 -11.12768555 40.76538086 C-14.19323971 41.81446422 -17.25180517 42.88241356 -20.31054688 43.95117188 C-22.26262213 44.62095483 -24.21508331 45.28961427 -26.16796875 45.95703125 C-27.07951218 46.27775101 -27.9910556 46.59847076 -28.93022156 46.9289093 C-29.78493546 47.21638535 -30.63964935 47.50386139 -31.52026367 47.80004883 C-32.26668625 48.05667801 -33.01310883 48.31330719 -33.78215027 48.57771301 C-36.50652973 49.09644518 -38.35908683 48.81744151 -41 48 C-42.875 45.625 -42.875 45.625 -44 43 C-43.67 42.01 -43.34 41.02 -43 40 C-40.89306641 39.02026367 -40.89306641 39.02026367 -38.1015625 38.16796875 C-37.07281006 37.84699219 -36.04405762 37.52601563 -34.98413086 37.1953125 C-33.87561768 36.86273437 -32.76710449 36.53015625 -31.625 36.1875 C-29.94386108 35.66736328 -29.94386108 35.66736328 -28.22875977 35.13671875 C-25.93308406 34.42679331 -23.63594896 33.7215705 -21.33740234 33.02099609 C-16.52621038 31.54913035 -11.73240902 30.02387299 -6.9375 28.5 C-4.29211378 27.66523954 -1.64606371 26.83261123 1 26 C-1.56531124 24.71734438 -3.26779312 24.93781761 -6.13647461 25.02587891 C-7.20776108 25.05565826 -8.27904755 25.08543762 -9.38279724 25.11611938 C-11.12497276 25.17078873 -11.12497276 25.17078873 -12.90234375 25.2265625 C-15.34308372 25.28965487 -17.78383955 25.35213603 -20.22460938 25.4140625 C-24.08740855 25.51740511 -27.94989816 25.62538122 -31.81225586 25.74414062 C-35.52956113 25.85608908 -39.24695239 25.94901363 -42.96484375 26.0390625 C-44.12426987 26.07955719 -45.28369598 26.12005188 -46.47825623 26.16177368 C-47.55269485 26.18524872 -48.62713348 26.20872375 -49.73413086 26.23291016 C-51.15404579 26.27407455 -51.15404579 26.27407455 -52.60264587 26.31607056 C-55 26 -55 26 -56.89161682 24.79794312 C-58 23 -58 23 -57.97373962 20.44451904 C-57 18 -57 18 -55.03297424 16.7600708 C-54.17074753 16.47218689 -53.30852081 16.18430298 -52.42016602 15.88769531 C-50.95843712 15.38257416 -50.95843712 15.38257416 -49.46717834 14.86724854 C-48.40679855 14.52433777 -47.34641876 14.181427 -46.25390625 13.828125 C-45.17245834 13.46023865 -44.09101044 13.09235229 -42.97679138 12.71331787 C-39.51161986 11.53924049 -36.03763039 10.39422392 -32.5625 9.25 C-30.22265643 8.4641749 -27.88345399 7.67643805 -25.54492188 6.88671875 C-20.40054203 5.15032682 -15.25020724 3.43296741 -10.0940094 1.73199463 C-3.82593347 -0.45911202 -3.82593347 -0.45911202 0 0 Z " fill="#FFFFFF" transform="translate(1439,478)"/>
<path d="M0 0 C2.17208862 -0.08309937 2.17208862 -0.08309937 5.68746948 0.15249634 C7.97760602 3.58770114 7.86589922 5.13782734 7.68746948 9.15249634 C6.79439087 9.23813843 5.90131226 9.32378052 4.98117065 9.41201782 C1.66545855 9.73165394 -1.6499182 10.05441715 -4.96511841 10.37930298 C-6.3995669 10.5192294 -7.83413738 10.65791103 -9.26882935 10.7953186 C-11.33190779 10.99312848 -13.39450496 11.19542203 -15.45706177 11.39859009 C-16.69818726 11.51903687 -17.93931274 11.63948364 -19.2180481 11.76358032 C-22.34233324 12.05384216 -22.34233324 12.05384216 -25.31253052 13.15249634 C-24.36378052 13.60624634 -23.41503052 14.05999634 -22.43753052 14.52749634 C-19.31253052 16.15249634 -19.31253052 16.15249634 -17.31253052 18.15249634 C-17.39712124 23.22793942 -17.90339072 27.0664069 -21.56643677 30.91299438 C-29.05537211 36.22917514 -39.70796736 35.61170434 -48.43753052 35.52749634 C-50.25317505 35.54489868 -50.25317505 35.54489868 -52.10549927 35.56265259 C-67.57833461 35.51214279 -67.57833461 35.51214279 -72.92630005 30.70059204 C-77.32133944 25.59420338 -77.41670148 22.61109629 -77.31253052 16.15249634 C-77.97253052 16.15249634 -78.63253052 16.15249634 -79.31253052 16.15249634 C-79.97253052 13.84249634 -80.63253052 11.53249634 -81.31253052 9.15249634 C-78.75714471 6.59711053 -77.51616846 6.76279519 -73.95315552 6.44155884 C-72.79630249 6.33303589 -71.63944946 6.22451294 -70.44754028 6.11270142 C-68.52446045 5.9467749 -68.52446045 5.9467749 -66.56253052 5.77749634 C-65.21473338 5.65534842 -63.86699714 5.53252699 -62.51931763 5.40908813 C-59.50215037 5.13492961 -56.48447332 4.86745274 -53.46633911 4.60415649 C-48.77936355 4.19504949 -44.09356916 3.7734544 -39.40783691 3.35037231 C-35.26067518 2.97676075 -31.11314433 2.60738802 -26.96548462 2.23934937 C-24.91374059 2.05720714 -22.86206331 1.87431146 -20.81045532 1.69064331 C-17.89609305 1.43075144 -14.98134482 1.1757161 -12.06643677 0.92202759 C-11.19980911 0.84405441 -10.33318146 0.76608124 -9.44029236 0.68574524 C-6.29564033 0.41577508 -3.14922521 0.20767091 0 0 Z M-70.31253052 16.15249634 C-70.64892214 19.18002092 -70.57729532 20.73127961 -68.93753052 23.33999634 C-59.36221334 29.95152486 -44.7877554 27.4287125 -34.02737427 25.78530884 C-31.11386715 25.27379704 -31.11386715 25.27379704 -28.31253052 23.15249634 C-28.31253052 22.16249634 -28.31253052 21.17249634 -28.31253052 20.15249634 C-29.68323833 19.49760261 -31.05936495 18.85404671 -32.43753052 18.21499634 C-33.58608521 17.67552368 -33.58608521 17.67552368 -34.75784302 17.12515259 C-40.61294673 14.89591585 -46.5140736 14.99837626 -52.68753052 15.02749634 C-53.90569458 15.02169556 -53.90569458 15.02169556 -55.14846802 15.01577759 C-60.29029606 15.0240177 -65.22348249 15.4154618 -70.31253052 16.15249634 Z " fill="#FFFFFF" transform="translate(1990.3125305175781,212.84750366210938)"/>
<path d="M0 0 C0.33 -0.33 0.66 -0.66 1 -1 C6.52941176 -1.23529412 6.52941176 -1.23529412 9 0 C8.49904095 6.52378873 7.23449742 11.90489999 4.83984375 17.97265625 C4.53051407 18.78117538 4.22118439 19.58969452 3.90248108 20.42271423 C2.92407539 22.97326373 1.93109854 25.517836 0.9375 28.0625 C0.26660156 29.80366048 -0.40332958 31.54519402 -1.07226562 33.28710938 C-2.70370138 37.52913099 -4.3482189 41.76586139 -6 46 C-5.23042969 45.17371094 -4.46085937 44.34742188 -3.66796875 43.49609375 C-1 41 -1 41 1.6875 41.0625 C4 42 4 42 6 44 C5.88773975 47.39587268 5.2749341 48.71742884 2.890625 51.16796875 C2.01921875 51.83441406 1.1478125 52.50085938 0.25 53.1875 C-0.61109375 53.86167969 -1.4721875 54.53585937 -2.359375 55.23046875 C-6.99178365 58.33473076 -10.43389783 59.25888847 -16 59 C-16.66 57.35 -17.32 55.7 -18 54 C-19.051875 54.66 -20.10375 55.32 -21.1875 56 C-26.53845357 58.97633361 -26.53845357 58.97633361 -30 58 C-34.10558011 54.15414029 -37.12557811 50.53961039 -37.375 44.8125 C-37.22595141 34.42381339 -32.5061883 24.61416472 -28 15.4375 C-27.6803125 14.78313965 -27.360625 14.1287793 -27.03125 13.45458984 C-24.19777228 7.90902835 -21.19230029 3.21794461 -15.625 0.125 C-10.08045824 -1.59571986 -5.58990633 -1.15086307 0 0 Z M-12.453125 8.51171875 C-15.58497338 11.5715154 -17.21158799 14.63720267 -19.0625 18.5625 C-19.40611572 19.27269287 -19.74973145 19.98288574 -20.10375977 20.71459961 C-23.79569255 28.4654687 -27.44670414 36.33169824 -28 45 C-27.67 45.66 -27.34 46.32 -27 47 C-21.83823814 46.32174802 -20.04622974 44.54269272 -16.828125 40.625 C-10.84993387 32.04093068 -5.8568245 21.07328223 -3 11 C-3.33 10.01 -3.66 9.02 -4 8 C-8.39546566 6.77147398 -8.39546566 6.77147398 -12.453125 8.51171875 Z " fill="#FFFFFF" transform="translate(1658,603)"/>
<path d="M0 0 C7.52099611 1.76964614 12.25186975 10.19183564 16.8671875 15.92578125 C19.07078406 18.60793666 21.34793825 21.18626421 23.6875 23.75 C26.92520774 27.31831875 30.09215227 30.93213261 33.1875 34.625 C33.93 35.50929687 34.6725 36.39359375 35.4375 37.3046875 C37.07685707 39.59539626 37.99297569 40.95592353 38.1875 43.75 C36.25 46.5 36.25 46.5 34.1875 48.75 C30.69917242 48.1862727 29.31441973 47.16039626 27.12109375 44.42578125 C26.5580957 43.73291016 25.99509766 43.04003906 25.41503906 42.32617188 C24.82432617 41.57916016 24.23361328 40.83214844 23.625 40.0625 C23.01237305 39.30388672 22.39974609 38.54527344 21.76855469 37.76367188 C18.77825886 34.04869097 15.83028749 30.30113092 12.89453125 26.54296875 C12.3931665 25.90125732 11.89180176 25.2595459 11.37524414 24.59838867 C10.43335795 23.38748353 9.49615535 22.17291735 8.56420898 20.9543457 C6.28287083 17.88857234 6.28287083 17.88857234 3.1875 15.75 C7.28999133 25.92921911 11.57876272 36.01740816 16 46.0625 C16.71990112 47.69916626 16.71990112 47.69916626 17.4543457 49.36889648 C19.76721594 54.70807177 19.76721594 54.70807177 22.35424805 59.91479492 C23.52100111 62.48452326 22.95641935 64.09373315 22.1875 66.75 C21.8575 67.41 21.5275 68.07 21.1875 68.75 C16.81980042 68.47901134 14.83292087 66.78123144 11.93920898 63.59936523 C11.44364502 63.03032471 10.94808105 62.46128418 10.4375 61.875 C9.6487146 60.99533569 9.6487146 60.99533569 8.84399414 60.09790039 C4.91897416 55.68590819 1.1827213 51.12966806 -2.51171875 46.5234375 C-5.57673603 42.82876472 -8.81545391 39.31175047 -12.09594727 35.80834961 C-18.66326178 28.76979452 -18.66326178 28.76979452 -19.1875 25.1875 C-18.8125 22.75 -18.8125 22.75 -17.625 20.875 C-15.8125 19.75 -15.8125 19.75 -13.453125 19.87890625 C-9.98607807 21.02262143 -8.89839184 22.64529994 -6.75 25.5625 C-4.27693093 28.8778817 -1.80603247 31.88980973 1.1875 34.75 C0.77757812 33.88117188 0.36765625 33.01234375 -0.0546875 32.1171875 C-0.59351563 30.96476562 -1.13234375 29.81234375 -1.6875 28.625 C-2.22117187 27.48804688 -2.75484375 26.35109375 -3.3046875 25.1796875 C-6.20676225 18.57859519 -7.77278421 12.96413511 -6.8125 5.75 C-4.92235232 2.11510062 -3.94776464 1.05273724 0 0 Z " fill="#FFFFFF" transform="translate(1409.8125,131.25)"/>
<path d="M0 0 C1.8125 1.8125 1.8125 1.8125 3 4 C2.80407715 6.01753235 2.80407715 6.01753235 2 8 C0.40588379 9.08171082 0.40588379 9.08171082 -1.67773438 9.90698242 C-2.45524048 10.22378464 -3.23274658 10.54058685 -4.03381348 10.86698914 C-4.87859253 11.19318741 -5.72337158 11.51938568 -6.59375 11.85546875 C-7.45560913 12.20257401 -8.31746826 12.54967926 -9.20544434 12.90730286 C-11.96472783 14.01528451 -14.73185112 15.10188086 -17.5 16.1875 C-20.2662321 17.2881909 -23.03072697 18.39312161 -25.79455566 19.49983215 C-27.51664929 20.18765341 -29.24049845 20.87109779 -30.96618652 21.54985046 C-34.76154573 22.81248113 -34.76154573 22.81248113 -38 25 C-25.73469855 24.78133174 -13.80026928 22.80258292 -1.74194336 20.7277832 C0.20699829 20.39653442 0.20699829 20.39653442 2.1953125 20.05859375 C3.36078613 19.85548584 4.52625977 19.65237793 5.72705078 19.44311523 C8.89101414 19.01475528 11.81367046 18.79222103 15 19 C16.875 20.75 16.875 20.75 18 23 C18 24.32 18 25.64 18 27 C10.27807653 30.48332495 2.55073381 33.95407483 -5.18624878 37.40380859 C-8.24510065 38.76793608 -11.30173462 40.1363055 -14.35400391 41.51513672 C-17.23064198 42.81421934 -20.11399564 44.09689367 -23 45.375 C-23.8458667 45.76163818 -24.6917334 46.14827637 -25.56323242 46.54663086 C-28.90112179 48.00775117 -31.26231904 49.02158109 -34.9375 48.9140625 C-37 48 -37 48 -39 45 C-39.16015625 42.55078125 -39.16015625 42.55078125 -38 40 C-35.30726074 38.30971862 -32.41651069 37.27142919 -29.4375 36.1875 C-28.22803711 35.72053711 -28.22803711 35.72053711 -26.99414062 35.24414062 C-25.0028602 34.47826354 -23.0022324 33.73677056 -21 33 C-22.15242188 33.15855469 -23.30484375 33.31710938 -24.4921875 33.48046875 C-28.71046477 34.00334196 -32.87666783 34.25110792 -37.125 34.3125 C-37.80175781 34.34150391 -38.47851562 34.37050781 -39.17578125 34.40039062 C-44.26891581 34.46442423 -47.08904956 33.1977072 -51 30 C-52.31279462 27.45646042 -52.07896659 26.34218856 -51.4375 23.5625 C-47.8156931 17.10623553 -41.33331404 14.49969489 -34.8046875 11.7578125 C-33.93482208 11.3851828 -33.06495667 11.0125531 -32.16873169 10.62863159 C-30.34041771 9.84884941 -28.50987222 9.07428072 -26.67724609 8.3046875 C-23.870093 7.12293425 -21.07364549 5.91810827 -18.27734375 4.7109375 C-16.4953869 3.95432575 -14.71285384 3.19906934 -12.9296875 2.4453125 C-12.0942038 2.08398224 -11.25872009 1.72265198 -10.3979187 1.35037231 C-9.6167569 1.02608246 -8.83559509 0.7017926 -8.03076172 0.36767578 C-7.34714569 0.07853302 -6.66352966 -0.21060974 -5.959198 -0.5085144 C-3.58613717 -1.10382188 -2.27600751 -0.85442172 0 0 Z " fill="#FFFFFF" transform="translate(1913,122)"/>
<path d="M0 0 C0.93675192 3.00301935 1.01057507 4.97041791 0.27148438 8.01831055 C0.08799438 8.79559006 -0.09549561 9.57286957 -0.2845459 10.373703 C-0.59228943 11.6176458 -0.59228943 11.6176458 -0.90625 12.88671875 C-1.10980103 13.74433304 -1.31335205 14.60194733 -1.52307129 15.48554993 C-2.17338891 18.22169059 -2.83571734 20.95471893 -3.5 23.6875 C-4.16310031 26.43123934 -4.82351624 29.17552183 -5.47692871 31.92158508 C-5.88382195 33.63019648 -6.2965413 35.33743232 -6.7154541 37.0431366 C-7.18757982 39.01877026 -7.60032291 41.0084455 -8 43 C-7.505 43.495 -7.505 43.495 -7 44 C-5.02 41.525 -5.02 41.525 -3 39 C-0.5625 39.75 -0.5625 39.75 2 41 C2.85546875 42.828125 2.85546875 42.828125 3 45 C-1.55237773 52.23856335 -7.76885658 57.06326037 -16 59 C-17.32 57.35 -18.64 55.7 -20 54 C-21.0209375 55.2684375 -21.0209375 55.2684375 -22.0625 56.5625 C-25 59 -25 59 -28.5 59.1875 C-33.46797522 57.50193698 -35.63764601 54.72470797 -38 50 C-39.52025525 35.81925841 -35.30297614 16.71519494 -26.4375 5.375 C-23.5348075 2.54673551 -21.56229891 1.14357576 -17.4921875 0.76953125 C-16.62851563 0.78371094 -15.76484375 0.79789062 -14.875 0.8125 C-14.00617188 0.81894531 -13.13734375 0.82539062 -12.2421875 0.83203125 C-10 1 -10 1 -8 2 C-8 1.34 -8 0.68 -8 0 C-4.71023192 -1.09658936 -3.28696233 -0.79953138 0 0 Z M-18.625 9.875 C-23.42450553 16.19013886 -25.39239971 22.9470822 -27.25 30.5625 C-27.42539307 31.27051758 -27.60078613 31.97853516 -27.78149414 32.70800781 C-28.897729 37.56923034 -29.41164534 42.01150841 -29 47 C-28.01 47.66 -27.02 48.32 -26 49 C-15.74901712 39.22168492 -12.81710483 25.44026552 -10 12 C-10 11.01 -10 10.02 -10 9 C-13.83147527 7.84164701 -15.28915045 7.49225032 -18.625 9.875 Z " fill="#FFFFFF" transform="translate(1663,6)"/>
<path d="M0 0 C2.55599013 2.1819428 3.417796 3.12095349 4.5625 6.1875 C4.79296875 9.38671875 4.79296875 9.38671875 4.75 12.875 C4.74355469 14.03386719 4.73710938 15.19273437 4.73046875 16.38671875 C4.5625 19.1875 4.5625 19.1875 3.5625 20.1875 C1.75 20.3203125 1.75 20.3203125 -0.4375 20.3125 C-1.159375 20.31507813 -1.88125 20.31765625 -2.625 20.3203125 C-4.4375 20.1875 -4.4375 20.1875 -5.4375 19.1875 C-5.5096365 16.92421744 -5.43398089 14.67745407 -5.375 12.4140625 C-5.33489209 10.01285035 -5.33489209 10.01285035 -6.4375 7.1875 C-11.72307366 6.68411203 -14.34700339 7.84073004 -18.4375 11.1875 C-19.60679824 13.25414554 -19.60679824 13.25414554 -20.4375 15.1875 C-20.004375 15.75597656 -19.57125 16.32445312 -19.125 16.91015625 C-16.45633017 20.61046465 -14.58391585 23.32364651 -13.8125 27.875 C-15.1144137 34.77514263 -19.83814678 39.31366175 -25.4375 43.1875 C-30.74646213 46.08034263 -36.44820752 47.31244537 -42.4375 46.1875 C-47.14234369 44.15384544 -50.47458685 42.03431399 -52.4375 37.1875 C-53.67151943 31.73724752 -53.22263126 28.33287833 -51.4375 23.1875 C-45.28515625 22.30859375 -45.28515625 22.30859375 -43.4375 22.1875 C-41.20107738 24.42392262 -41.91857795 29.47403384 -41.71875 32.5 C-41.73142201 35.10346752 -41.73142201 35.10346752 -40.4375 36.1875 C-36.50855114 36.64435452 -34.68436878 36.32517682 -31.1875 34.375 C-28.29207761 32.30070337 -28.29207761 32.30070337 -26.4375 29.1875 C-26.60057573 25.43675814 -27.05409192 23.64061864 -29.5 20.75 C-31.4375 18.1875 -31.4375 18.1875 -31.9375 14.75 C-31.1038767 8.81043399 -27.89074174 4.93841507 -23.1953125 1.29296875 C-15.68831314 -3.42809974 -7.86453895 -4.1467569 0 0 Z " fill="#FFFFFF" transform="translate(1507.4375,549.8125)"/>
<path d="M0 0 C0.85722656 0.17144531 1.71445313 0.34289062 2.59765625 0.51953125 C4.9375 1.1875 4.9375 1.1875 7.9375 3.1875 C7.4395163 6.92237777 7.06258244 8.99987635 4.9375 12.1875 C2.76875748 11.68146008 0.93782373 11.18766187 -1.0625 10.1875 C-3.06210012 10.147508 -5.06297242 10.14403201 -7.0625 10.1875 C-8.13761878 14.57756837 -8.3882941 17.23372243 -6.125 21.125 C-5.444375 22.135625 -4.76375 23.14625 -4.0625 24.1875 C-0.45257621 23.53164811 -0.45257621 23.53164811 2.9375 22.1875 C6.07623411 21.56742422 8.80875684 21.47688677 11.9375 22.1875 C16.81716122 25.8839351 19.37789681 30.32251334 20.9375 36.1875 C21.74016787 43.79417804 21.83967894 50.09289915 16.9375 56.1875 C13.28607793 59.42161669 9.86357506 59.65325497 5.16015625 59.47265625 C1.86368941 59.0497352 -0.37704875 58.13445216 -3.0625 56.1875 C-4.29154036 53.19171412 -4.3411343 51.87479793 -3.125 48.875 C-2.774375 48.318125 -2.42375 47.76125 -2.0625 47.1875 C1.0625 47.70833333 4.1875 48.22916667 7.3125 48.75 C8.17875 48.894375 9.045 49.03875 9.9375 49.1875 C12.21433768 45.77224348 12.08995214 44.16903163 11.49609375 40.1953125 C10.67592381 37.24728907 9.03818972 35.3559539 6.9375 33.1875 C6.091875 33.331875 5.24625 33.47625 4.375 33.625 C3.240625 33.810625 2.10625 33.99625 0.9375 34.1875 C-0.238125 34.435 -1.41375 34.6825 -2.625 34.9375 C-6.68025169 35.2324274 -7.94077854 34.71862551 -11.0625 32.1875 C-16.57747957 26.19980789 -17.46830782 21.00286692 -17.3125 13.06640625 C-16.87448559 8.02239659 -15.2419853 5.30649888 -11.625 1.875 C-7.49395488 -0.84544435 -4.80467647 -1.00731528 0 0 Z " fill="#FFFFFF" transform="translate(1482.0625,66.8125)"/>
<path d="M0 0 C7 1 7 1 9 2 C8.47868283 6.95725232 6.14796788 10.28207993 3.4375 14.3125 C3.01275391 14.95767578 2.58800781 15.60285156 2.15039062 16.26757812 C1.10733607 17.84973954 0.05462128 19.42552501 -1 21 C0.65 21.33 2.3 21.66 4 22 C4.6875 23.75 4.6875 23.75 5 26 C3.9375 28.25 3.9375 28.25 2 30 C-1.45570193 30.35996895 -3.70024471 30.09991843 -7 29 C-13.25677452 37.65779409 -19.3705992 46.40142153 -25.35620117 55.24926758 C-27.92658001 59.0340933 -30.52526307 62.79809872 -33.203125 66.5078125 C-33.90163574 67.48065186 -33.90163574 67.48065186 -34.61425781 68.47314453 C-36 70 -36 70 -39 71 C-41.625 70.3125 -41.625 70.3125 -44 69 C-44.83203125 67.21875 -44.83203125 67.21875 -45 65 C-43.91015625 62.79296875 -43.91015625 62.79296875 -42.0625 60.1875 C-41.33675781 59.14722656 -40.61101562 58.10695313 -39.86328125 57.03515625 C-39.20900146 56.11500732 -39.20900146 56.11500732 -38.54150391 55.17626953 C-35.97048731 51.54655114 -33.44369213 47.88610281 -30.90795898 44.23168945 C-28.81330426 41.21613551 -26.7117589 38.2054807 -24.609375 35.1953125 C-22.02762622 31.49181105 -19.48054063 27.77195612 -17 24 C-18.65 23.67 -20.3 23.34 -22 23 C-21.64301497 20.35831079 -21.247692 18.39109264 -19.8125 16.125 C-18 15 -18 15 -12 16 C-8.04 10.72 -4.08 5.44 0 0 Z " fill="#FFFFFF" transform="translate(1582,569)"/>
<path d="M0 0 C1.375 1.75 1.375 1.75 2 4 C1.625 6.75 1.625 6.75 1 9 C-2.4447551 10.1482517 -5.37585051 10.28602961 -9.0065918 10.48071289 C-9.71594376 10.5198732 -10.42529572 10.55903351 -11.15614319 10.59938049 C-13.50363362 10.72789378 -15.85139583 10.85037968 -18.19921875 10.97265625 C-19.83488061 11.06060512 -21.47052598 11.14886131 -23.1061554 11.2374115 C-26.53832986 11.42233981 -29.9706383 11.60445205 -33.40307617 11.78442383 C-37.78668302 12.01436127 -42.16997144 12.24980537 -46.55317974 12.48720646 C-49.93413743 12.66994829 -53.31521194 12.85044566 -56.69632912 13.03021049 C-58.31136653 13.11620793 -59.92637643 13.20272383 -61.54135704 13.28978157 C-63.80960869 13.41157188 -66.07799264 13.53051386 -68.34643555 13.64868164 C-70.27811836 13.75074669 -70.27811836 13.75074669 -72.24882507 13.85487366 C-73.4867128 13.90276535 -74.72460052 13.95065704 -76 14 C-77.0795996 14.04867124 -77.0795996 14.04867124 -78.18100929 14.09832573 C-80.12019886 14.15229601 -82.06188953 14.08424243 -84 14 C-86.0625 11.8125 -86.0625 11.8125 -87 9 C-86.6875 6.1875 -86.6875 6.1875 -86 4 C-81.15703119 3.25061774 -76.3905265 2.77757094 -71.49169922 2.50341797 C-70.77694427 2.46265137 -70.06218933 2.42188477 -69.32577515 2.37988281 C-66.98558202 2.24739 -64.64516824 2.11949159 -62.3046875 1.9921875 C-60.66756725 1.90162626 -59.03045185 1.81097748 -57.39334106 1.72024536 C-53.972468 1.53150126 -50.55146663 1.34530988 -47.13037109 1.16064453 C-42.75092793 0.92382974 -38.37201782 0.67834043 -33.99317741 0.43066216 C-30.61678015 0.24103758 -27.24008732 0.05716903 -23.86328506 -0.12508774 C-22.24847296 -0.21315717 -20.63377141 -0.30327906 -19.01919174 -0.39551163 C-16.76291124 -0.52376786 -14.50633661 -0.64397337 -12.24951172 -0.76220703 C-10.32593338 -0.867603 -10.32593338 -0.867603 -8.36349487 -0.97512817 C-5.3544114 -0.99737926 -2.8808261 -0.84315555 0 0 Z " fill="#FFFFFF" transform="translate(1435,413)"/>
<path d="M0 0 C0.13277344 1.04800781 0.26554687 2.09601562 0.40234375 3.17578125 C0.58057235 4.55470778 0.75896641 5.93361293 0.9375 7.3125 C1.02451172 8.00279297 1.11152344 8.69308594 1.20117188 9.40429688 C1.59210135 12.40142288 2.0415004 15.12450119 3 18 C3.969375 17.814375 4.93875 17.62875 5.9375 17.4375 C7.4534375 17.2209375 7.4534375 17.2209375 9 17 C10 18 10 18 10.0625 21.5625 C10.041875 22.696875 10.02125 23.83125 10 25 C8.02 25.99 6.04 26.98 4 28 C4.49247128 39.88723787 5.65124853 51.65119883 7.0715332 63.46386719 C7.20519287 64.62563477 7.33885254 65.78740234 7.4765625 66.984375 C7.60111816 68.02303711 7.72567383 69.06169922 7.85400391 70.13183594 C8.00147311 73.02894 7.88458254 75.23770361 7 78 C4 80 4 80 1.375 79.6875 C-1 79 -1 79 -2 78 C-2.23891509 76.56177135 -2.41844652 75.11359303 -2.57250977 73.66381836 C-2.67253799 72.7429393 -2.77256622 71.82206024 -2.87562561 70.87327576 C-2.97983322 69.87224319 -3.08404083 68.87121063 -3.19140625 67.83984375 C-3.30097153 66.82024063 -3.4105368 65.80063751 -3.52342224 64.75013733 C-3.87390016 61.47968288 -4.21826022 58.20861637 -4.5625 54.9375 C-4.79842675 52.7258686 -5.03474961 50.51427943 -5.27148438 48.30273438 C-5.8522607 42.86897188 -6.42800974 37.434694 -7 32 C-7.804375 32.185625 -8.60875 32.37125 -9.4375 32.5625 C-10.283125 32.706875 -11.12875 32.85125 -12 33 C-13 32 -13 32 -13.375 28.625 C-13.25125 27.42875 -13.1275 26.2325 -13 25 C-11.35 24.01 -9.7 23.02 -8 22 C-8.33 15.4 -8.66 8.8 -9 2 C-5.23312136 0.11656068 -3.97041037 -0.22057835 0 0 Z " fill="#FFFFFF" transform="translate(1558,4)"/>
<path d="M0 0 C6.69974129 0.33318606 10.96378906 3.07313469 16.5 6.6875 C18.3716776 7.87873341 20.24410028 9.0687968 22.1171875 10.2578125 C23.08366211 10.8755957 24.05013672 11.49337891 25.04589844 12.12988281 C29.86227117 15.17892539 34.74568686 18.11566952 39.625 21.0625 C47.05448645 25.57184239 54.45587766 30.12262947 61.8125 34.75 C62.61316895 35.25152588 63.41383789 35.75305176 64.23876953 36.26977539 C64.9707959 36.73246826 65.70282227 37.19516113 66.45703125 37.671875 C67.09616455 38.0750293 67.73529785 38.47818359 68.39379883 38.89355469 C70 40 70 40 72 42 C71.625 45.625 71.625 45.625 71 49 C67.75302122 50.06225565 66.3688639 50.16317604 63.1953125 48.75927734 C62.18210937 48.1245752 61.16890625 47.48987305 60.125 46.8359375 C59.56755096 46.49246277 59.01010193 46.14898804 58.4357605 45.79510498 C56.61495158 44.6687009 54.8077995 43.52214424 53 42.375 C51.736693 41.58830929 50.47252393 40.80300134 49.20751953 40.01904297 C46.6610267 38.43783469 44.11974464 36.84876532 41.58300781 35.25195312 C37.55020899 32.71386547 33.49696378 30.20951349 29.44018555 27.70996094 C27.7429969 26.66131254 26.04908046 25.6073479 24.35864258 24.54785156 C20.18926972 21.93710352 15.99574178 19.41057557 11.70703125 17 C10.86221191 16.51515137 10.01739258 16.03030273 9.14697266 15.53076172 C7.55344961 14.61995115 5.94805856 13.72947769 4.32958984 12.86376953 C2.30862028 11.69602617 0.62742659 10.67382381 -1 9 C-1.52670746 5.41535789 -1.62593052 3.25186104 0 0 Z " fill="#FFFFFF" transform="translate(1334,216)"/>
</svg>
